<?xml version="1.0" encoding="utf-8"?>
<!-- Generator: Adobe Illustrator 19.0.0, SVG Export Plug-In . SVG Version: 6.00 Build 0)  -->
<svg version="1.1" xmlns="http://www.w3.org/2000/svg" xmlns:xlink="http://www.w3.org/1999/xlink" x="0px" y="0px"
	 viewBox="0 0 1014 277.6" style="enable-background:new 0 0 1014 277.6;" xml:space="preserve">
<style type="text/css">
	.st0{display:none;}
	.st1{display:inline;}
	.st2{fill:#F17D24;}
	.st3{fill:#36C2AB;}
	.st4{fill:#007A66;}
	.st5{fill:#004A3E;}
	.st6{fill:#FBB03B;}
	.st7{fill:#F14324;}
	.st8{fill:#F28D52;}
	.st9{fill:#FFFFFF;}
	.st10{fill:#A1A1A1;}
	.st11{fill:#8C8C8C;}
	.st12{fill:#4F4F4F;}
	.st13{fill:#3B3B3B;}
</style>
<g id="Warstwa_1" class="st0">
	<g id="XMLID_80_" class="st1">
		<path id="XMLID_182_" d="M810.3,172.5c0-8.3,6.9-15.3,15.3-15.3c8.3,0,15.3,7,15.3,15.3c0,8.3-15.3,25.7-15.3,25.7
			S810.3,180.9,810.3,172.5z"/>
		<path id="XMLID_180_" d="M271.7,78.4v47v5h5h43.4h5v-5v-47h16v119.8h-16v-47v-5h-5h-43.4h-5v5v47h-16V78.4H271.7z"/>
		<path id="XMLID_177_" d="M451.2,81.9c7,3,13.6,7.5,19.7,13.5c6,6,10.5,12.6,13.5,19.7c3,7.3,4.5,15,4.5,23.4
			c0,8.4-1.5,16.2-4.5,23.4c-3,7.1-7.4,13.7-13.5,19.7c-5.9,5.9-12.5,10.4-19.7,13.4c-7.3,3-15,4.4-23.3,4.4
			c-8.4,0-16.2-1.5-23.4-4.4c-7.2-3-13.8-7.4-19.7-13.4c-6.1-6-10.5-12.6-13.4-19.7c-3-7-4.4-14.7-4.4-23.3c0-8.5,1.5-16.3,4.4-23.3
			c2.8-7,7.3-13.6,13.4-19.8c6-6,12.6-10.5,19.7-13.5c7-3,14.8-4.4,23.4-4.4C436.4,77.4,444.1,78.9,451.2,81.9z M410.7,96.9
			c-5.4,2.4-10.2,5.6-14.3,9.8c-4.4,4.4-7.7,9.2-9.8,14.4c-2.1,5.3-3.2,11-3.2,17.1c0,6.2,1.1,11.9,3.2,17.1
			c2.1,5.2,5.4,10,9.8,14.4c4.1,4.3,8.9,7.5,14.3,9.7c5.4,2.2,11.1,3.3,17.2,3.3c6,0,11.7-1.1,17-3.3c5.3-2.2,10.1-5.5,14.4-9.7
			c4.4-4.4,7.7-9.2,9.8-14.4c2.3-5.2,3.4-10.9,3.4-17.1c0-6.1-1.1-11.8-3.4-17.1c-2.2-5.2-5.5-10-9.7-14.4
			c-4.3-4.2-9.1-7.5-14.5-9.8c-5.3-2.2-11-3.3-17-3.3C421.8,93.6,416.1,94.7,410.7,96.9z"/>
		<path id="XMLID_175_" d="M606.9,78.4v47.4V152c0,6.6-1.1,12.7-3.4,18.2c-2.4,5.6-5.9,10.7-10.5,15.3v0.1
			c-4.9,4.8-10,8.2-15.4,10.4c-5.5,2.3-11.6,3.5-18.1,3.5c-6.7,0-12.8-1.1-18.3-3.4c-5.7-2.4-10.9-5.9-15.4-10.6
			c-4.7-4.6-8.2-9.7-10.5-15.3c-2.3-5.5-3.4-11.6-3.4-18.2v-26.3V78.4h16.2v47.4v23.4v2.7c0,4.2,0.8,8.2,2.3,11.9
			c1.5,3.5,3.7,6.9,6.8,10.1c3,3.1,6.4,5.3,10.2,6.8c3.7,1.6,7.6,2.3,11.9,2.3c4.1,0,8-0.8,11.8-2.3c3.8-1.6,7.1-3.8,10.1-6.8
			c3-2.8,5.3-6.1,7-10.1c1.6-3.8,2.3-7.7,2.3-11.9v-2.7v-23.4V78.4H606.9z"/>
		<path id="XMLID_173_" d="M672.4,181.5c2.4-1,4.5-2.2,6.5-3.7c1.9-1.5,3.5-3.4,4.6-5.7c1.2-2.3,1.8-4.7,1.8-7.2
			c0-2.1-0.4-4.2-1.3-6c-0.9-1.9-2.1-3.5-3.6-4.8c-1.5-1.3-3.3-2.5-5.5-3.7c-2.2-1.1-4.2-2.1-6.2-2.8c-2-0.7-4.1-1.4-6.5-2
			c-5.3-1.5-10-3.4-14.1-5.7c-4.1-2.3-7.8-5.4-10.9-9.1c-2.1-2.6-3.8-5.4-4.9-8.7c-1.2-3.2-1.7-6.6-1.7-10c0-4.7,0.9-9.2,2.7-13.4
			c1.8-4.2,4.3-7.9,7.4-11.1c3.2-3.2,6.9-5.7,11.1-7.5c4.2-1.8,8.7-2.7,13.4-2.7c4.3,0,8.4,0.7,12.2,2.2c3.9,1.5,7.4,3.6,10.5,6.3
			c5.2,4.5,8.8,10.1,10.6,16.7l-16,3.4c-0.9-2.5-2.3-4.7-4.3-6.8c-3.6-3.6-7.9-5.4-12.8-5.4c-2.5,0-4.8,0.5-7,1.4
			c-2.2,1-4.2,2.3-5.9,4c-1.7,1.7-3,3.7-4,5.9c-1,2.2-1.4,4.5-1.4,7c0,1.8,0.3,3.4,0.8,4.9c0.5,1.5,1.2,2.9,2,4
			c0.8,1.1,1.9,2.2,3.2,3.2c1.3,1,2.6,1.9,3.8,2.5c1.2,0.7,2.7,1.3,4.4,2c1.7,0.7,3.2,1.2,4.4,1.6c1.2,0.4,2.7,0.9,4.4,1.4
			c1.7,0.5,3,1,3.9,1.3c2.9,1,5.7,2.3,8.3,3.7c2.6,1.4,5.2,3.1,7.6,5.1c2.4,2,4.5,4.1,6.3,6.4c1.8,2.3,3.1,4.9,4.2,7.8
			c1,2.9,1.6,5.9,1.6,9.1c0,4.7-1,9.3-3.1,13.6c-2,4.3-4.8,8-8.1,11c-3.4,3.1-7.3,5.5-11.7,7.3c-4.4,1.8-9,2.7-13.7,2.7
			c-5.1,0-10.1-1-14.9-3.1c-4.8-2.1-9-5.1-12.6-8.9c-3.6-3.9-6.2-8.2-7.7-13.2l16.1-3.4c1.5,3.6,4.1,6.5,7.7,8.8
			c3.6,2.3,7.4,3.4,11.4,3.4C667.6,183,670,182.4,672.4,181.5z"/>
		<path id="XMLID_171_" d="M790,78.2v16h-47.1h-5v5v26.2v5.1h5H777v16h-34.1h-5v5v26.2v5.1h5H790v16h-47.1h-21V78.2H790z"/>
		<path id="XMLID_169_" d="M868.8,78.4h16v119.8h-16V78.4z"/>
		<path id="XMLID_150_" d="M991,159.5v-14.3v-67h16v122.2L928.8,117v9.2v72.4h-16V77.2L991,159.5z"/>
	</g>
	<g id="XMLID_79_" class="st1">
		<g id="XMLID_245_">
			<polyline id="XMLID_247_" class="st2" points="39,128.7 39,97.2 62.8,71.1 88,97.2 88,121.7 			"/>
			<polygon id="XMLID_246_" points="45,134.7 33,134.7 33,94.9 63.2,62.5 95,94.8 95,127.7 82,127.7 82,99.6 63,79.8 45,99.5 			"/>
		</g>
		<g id="XMLID_243_">
			<path id="XMLID_244_" class="st3" d="M214,135.7c0,0-110.4-32.4-194.9,1.9l11.9,16.9l162.2,21l20.7-37.9V135.7z"/>
		</g>
		<g id="XMLID_241_">
			<path id="XMLID_242_" class="st4" d="M106.2,191.8L63.9,211l-35.6-56.7c0,0,61.6,2.5,77.9,7.6"/>
		</g>
		<g id="XMLID_239_">
			<path id="XMLID_240_" class="st5" d="M181.2,185.9c0,0-93.4,1.7-117.2,27l51.3,55.3L181.2,185.9z"/>
		</g>
		<path id="XMLID_238_" class="st6" d="M144.7,61.6c17.2,0,31.5-12.6,34.1-29.1c-17.4-13.9-39.4-22.3-63.3-22.3c-0.3,0-0.6,0-1,0
			c-2.8,5-4.4,10.7-4.4,16.9C110.1,43.8,123.3,61.6,144.7,61.6z"/>
		<path id="XMLID_232_" d="M218.1,134.3l-4.3-2.2c-16.6-9.8-46.8-16.1-80.8-16.8c-26.6-0.6-66.7,2-109.3,16.8
			c-2.7-7.7-4-14.6-4-20.7c0-48.9,37.6-89.6,85.4-94.5c-0.8,3.3-1.3,6.6-1.3,10c0,19.7,15.6,40.9,40.9,40.9
			c20.3,0,37.2-14.5,40.4-34.5l0.6-3.6l-2.9-2.3c-19-15.2-42.9-23.6-67.3-23.6c-0.2,0-0.3,0-0.5,0l-1,0v0c0,0-0.5,0-0.7,0l-2.4,0
			l-0.1,0c-27.4,1-53.1,12.2-72.6,31.8C18.1,56,7,82.9,7,111.5c0,24.7,17.5,58.9,52.1,101.7c25.3,31.3,50.9,56.1,51.2,56.3l4.4,4.2
			l4.4-4.2c3.1-3,76.2-73.8,97.4-130.2l0,0L218.1,134.3z M118.5,16.6c19.4,0.6,37.6,6.9,53.2,18.4c-3.5,11.9-14.3,20.2-27.1,20.2
			c-17.4,0-28.2-14.6-28.2-28.2C116.5,23.4,117.2,19.9,118.5,16.6z M38.9,163.2c43.9-1.5,77.7,9.9,96.8,18.6
			c-32.2,4.8-59.3,15.3-69.8,19.7C55,187.7,46,174.9,38.9,163.2z M114.6,256c-7.5-7.5-23.6-24.1-40.4-44.3
			c16.2-6.5,56-20.4,96.4-19.8C149,220.7,124.5,246.2,114.6,256z M179.6,179.6c-7.1-0.5-14.1-0.5-21.1-0.2
			c-9.9-6.3-56.3-32.9-126.7-28.6c-1.4-2.6-2.6-5.2-3.8-7.7c32.1-11.1,69-16.7,104.6-16c28.3,0.6,54.2,5.3,69.9,12.5
			C197.2,152.5,189,166.2,179.6,179.6z"/>
		<polyline id="XMLID_229_" class="st7" points="107,188.7 107,140 143.5,99.6 182,140 182,178.7 		"/>
		<polygon id="XMLID_185_" points="112,194.7 101,194.7 101,137.7 143.4,90.9 188,137.6 188,185.7 176,185.7 176,142.4 143.1,108.2 
			112,142.3 		"/>
	</g>
</g>
<g id="Warstwa_9" class="st0">
	<g id="XMLID_6_" class="st1">
		<g id="XMLID_495_">
			<path id="XMLID_63_" d="M130.4,558.1h26.5v41.1h36.3v-41.1h26.5v108.7h-26.5v-41.2h-36.3v41.2h-26.5V558.1z"/>
			<path id="XMLID_60_" d="M294.4,557.3c16.6,0,29.1,5.5,41,16.2c11.3,10.8,17,23.9,17,39c0,15.2-5.7,28.3-17,39
				c-11.8,10.7-24.3,16-41,16c-16.7,0-29.1-5.4-40.9-16c-11.2-10.7-16.9-23.8-16.9-39c0-15.1,5.7-28.2,16.9-39
				C265.3,562.7,277.7,557.3,294.4,557.3z M294.4,584c-9.1,0-14.6,2.7-20.9,8.3c-6.4,5.7-9.5,12.3-9.5,20.1c0,7.9,3.1,14.5,9.5,20.1
				c6.4,5.5,11.9,8.3,21,8.3c8.9,0,14.4-2.7,20.9-8.3c6.4-5.6,9.6-12.1,9.6-20c0-7.8-3.1-14.4-9.6-20.1
				C308.9,586.8,303.4,584,294.4,584z"/>
			<path id="XMLID_52_" d="M439.8,622.6v-64.4h26.7v65.4c0,12.2-4.6,22.8-13.6,31.4c-9,8.6-20.9,12.9-35,12.9
				c-14.3,0-26.2-4.4-35.2-12.9c-9-8.6-13.6-19.2-13.6-31.4v-65.4h26.7v64.4c0,5,2.1,9.3,6.5,13c4.4,3.6,9.4,5.4,15.5,5.4
				C428.8,641,439.8,633.2,439.8,622.6z"/>
			<path id="XMLID_50_" d="M515.4,632.4c0,4,4.8,7.9,10,8.6l0,0h1.4c5.6,0,11.5-4.1,11.5-8.3c0-7.2-11.8-8.3-21.4-11.2
				c-15.1-4.5-27.8-15.4-27.8-30.7c0-18.5,16-33.5,37.8-33.5c19.9,0,35,13.3,37.4,30.5l0.3,2.1l-27.9,5.6c0-6.7-2.7-11.5-9.6-11.5
				c-5.2,0-9.7,3.7-9.7,8.3c0,7.2,11.1,9.5,20.3,11.8c15.5,3.9,28.7,14.4,28.7,30.1c0,18.7-17.7,33.6-39.3,33.6
				c-19.9,0-36.4-13.1-39-30.5l-0.3-2.1l27.8-5.7V632.4z"/>
			<path id="XMLID_48_" d="M588.1,557.9h75v26.5h-47.1v14.8h36.2v26.5h-36.2v14.8H663V667h-75V557.9z"/>
			<path id="XMLID_46_" d="M680.8,637.7c0-9.8,8.2-17.9,17.9-17.9c9.7,0,17.9,8.2,17.9,17.9c0,9.8-17.9,30.2-17.9,30.2
				S680.8,647.5,680.8,637.7z"/>
			<path id="XMLID_44_" d="M741.8,667.5V558.8h26.6v108.7H741.8z"/>
			<path id="XMLID_5_" d="M791.7,558.6l64.5,52.3v-52.3h27.4v109l0,0l-64.5-52.1v52.1h-27.4V558.6L791.7,558.6z"/>
		</g>
		<g id="XMLID_67_">
			<g id="XMLID_69_">
				<polyline id="XMLID_378_" class="st2" points="292,30.7 292,-60.5 361.6,-136.3 435,-60.5 435,10.7 				"/>
				<polygon id="XMLID_405_" points="309,47.7 275,47.7 275,-67.2 361.3,-161.5 452,-67.5 452,27.7 418,27.7 418,-53.5 
					361.9,-111.1 309,-53.7 				"/>
			</g>
			<g id="XMLID_83_">
				<path id="XMLID_263_" class="st3" d="M800,51.9c0,0-321.1-94.3-567.3,5.4l35.1,49.2l472.4,61.3L800,57.3V51.9z"/>
			</g>
			<g id="XMLID_82_">
				<path id="XMLID_261_" class="st4" d="M487.3,215.5L364,271.4L260.1,106.2c0,0,179.5,7.4,227.2,22.2"/>
			</g>
			<g id="XMLID_81_">
				<path id="XMLID_259_" class="st5" d="M705.9,198.3c0,0-272.4,4.8-341.7,78.8l149.6,161.1L705.9,198.3z"/>
			</g>
			<path id="XMLID_365_" class="st6" d="M599.5-164.3c50.3,0,91.9-36.8,99.5-85c-50.6-40.6-114.8-64.9-184.5-64.9
				c-0.9,0-1.9,0-2.8,0c-8.1,14.5-12.8,31.3-12.8,49.1C498.8-215.9,537.3-164.3,599.5-164.3z"/>
			<path id="XMLID_78_" d="M813.4,47.7L801,41.4C752.7,12.9,664.6-5.4,565.4-7.5c-77.6-1.7-194.5,5.8-318.6,49.1
				c-7.8-22.5-11.8-42.7-11.8-60.3c0-142.7,109.5-261.3,248.9-275.4c-2.4,9.5-3.7,19.3-3.7,29.2c0,57.3,45.6,119.2,119.2,119.2
				c59.1,0,108.6-42.3,117.7-100.6l1.7-10.6l-8.4-6.7c-55.4-44.5-125.1-68.9-196.1-68.9c-0.7,0-1.3,0-2,0l-3.4,0v0c0,0-1,0-1.5,0
				l-6.7,0.1l-0.1,0.1c-80,2.8-154.8,35.5-211.5,92.7c-58.7,59.2-91.1,137.7-91.1,220.9c0,72,51.1,171.8,151.8,296.5
				c73.7,91.3,148.5,163.6,149.3,164.3l12.8,12.4l12.8-12.4c9-8.7,222.2-215.1,284.1-379.8l-0.1,0L813.4,47.7z M523.2-295.5
				c56.5,1.7,109.8,20.2,155.2,53.7c-10.1,34.7-41.7,59-78.9,59c-50.8,0-82.2-42.7-82.2-82.2C517.3-275.4,519.3-285.8,523.2-295.5z
				 M291.1,132.1c128.1-4.2,226.5,28.8,282.2,54.1c-93.9,14-172.9,44.5-203.5,57.4C338.1,203.6,311.8,166.2,291.1,132.1z
				 M511.9,402.7c-21.9-22-68.8-70.4-117.7-129.1c47.3-18.8,163.3-59.5,281.1-57.7C612.1,299.8,540.6,374,511.9,402.7z M701.4,179.9
				c-20.6-1.4-41.2-1.4-61.4-0.5C611.2,161.2,475.8,83.6,270.7,96c-4-7.6-7.6-15.1-11-22.3C353.5,41.3,461,24.8,564.7,27
				c82.4,1.7,158.2,15.5,203.9,36.4C752.6,101,728.6,141,701.4,179.9z"/>
			<polyline id="XMLID_149_" class="st7" points="487,205.7 487,64.3 595.1,-53.4 709,64.3 709,178.7 			"/>
			<polygon id="XMLID_361_" points="504,222.7 470,222.7 470,57.6 594.7,-78.6 726,57.3 726,195.7 692,195.7 692,71.3 595.4,-28.3 
				504,71 			"/>
		</g>
	</g>
</g>
<g id="Warstwa_8" class="st0">
	<g id="XMLID_248_" class="st1">
		<g id="XMLID_267_">
			<polyline id="XMLID_269_" class="st2" points="237,129.7 237,13.8 325.1,-82.5 418,13.8 418,104.7 			"/>
			<polygon id="XMLID_268_" points="259,151.7 215,151.7 215,5.2 324.7,-114.5 440,4.9 440,126.7 396,126.7 396,22.6 325.5,-50.6 
				259,22.3 			"/>
		</g>
		<g id="XMLID_265_">
			<path id="XMLID_266_" class="st3" d="M882,156.5c0,0-408.5-119.8-721.1,6.9l44.3,62.4l600.4,77.8L882,163.4V156.5z"/>
		</g>
		<g id="XMLID_262_">
			<path id="XMLID_264_" class="st4" d="M483.5,364.2l-156.6,71L195,225.4c0,0,228,9.4,288.5,28.2"/>
		</g>
		<g id="XMLID_258_">
			<path id="XMLID_260_" class="st5" d="M761.2,342.4c0,0-345.9,6.1-433.9,100.1l190,204.6L761.2,342.4z"/>
		</g>
		<path id="XMLID_257_" class="st6" d="M626-118c63.8,0,116.7-46.8,126.3-107.9C688-277.5,606.5-308.4,518-308.4c-1.2,0-2.4,0-3.6,0
			c-10.3,18.5-16.3,39.7-16.3,62.4C498.1-183.6,547-118,626-118z"/>
		<path id="XMLID_251_" d="M897.7,151.2l-15.7-8C820.6,106.9,708.7,83.7,582.8,81c-98.6-2.1-247,7.4-404.6,62.4
			c-9.9-28.6-14.9-54.2-14.9-76.6c0-181.2,139.1-331.8,316.1-349.8c-3.1,12.1-4.7,24.6-4.7,37.1c0,72.8,57.9,151.4,151.4,151.4
			c75,0,137.9-53.7,149.5-127.8l2.1-13.4l-10.6-8.5c-70.4-56.5-158.8-87.6-249-87.6c-0.8,0-1.2,0-2,0l-3.9,0v0c0,0-1.8,0-2.4,0
			l-8.8,0.1l-0.2,0.1C399.1-328,304-286.4,232-213.8C157.4-138.7,116.3-39,116.3,66.8c0,91.4,64.8,218.1,192.7,376.6
			c93.6,116,188.6,207.7,189.5,208.6l16.3,15.7l16.3-15.7c11.5-11.1,282.1-273.2,360.8-482.3l-0.1,0L897.7,151.2z M529.1-284.7
			c71.7,2.2,139.4,25.6,197.1,68.3c-12.8,44.1-53,74.9-100.2,74.9c-64.5,0-104.4-54.2-104.4-104.4
			C521.6-259.2,524.2-272.4,529.1-284.7z M234.4,258.2c162.6-5.4,287.7,36.6,358.4,68.7c-119.3,17.8-219.6,56.5-258.4,72.9
			C294.1,349.1,260.7,301.7,234.4,258.2z M514.8,602c-27.8-27.9-87.4-89.4-149.5-164c60-23.9,207.3-75.5,357-73.3
			C642,471.3,551.2,565.5,514.8,602z M755.5,319.1c-26.1-1.7-52.3-1.8-78-0.6c-36.6-23.2-208.6-121.7-469-106.1
			c-5.1-9.7-9.7-19.2-13.9-28.4c119-41,255.5-62,387.2-59.2c104.7,2.2,200.8,19.6,258.9,46.3C820.4,218.8,790,269.6,755.5,319.1z"/>
		<polyline id="XMLID_250_" class="st7" points="484,352.7 484,172.2 621.3,22.7 766,172.2 766,317.7 		"/>
		<polygon id="XMLID_249_" points="506,374.7 462,374.7 462,163.7 620.8,-9.3 788,163.4 788,339.7 744,339.7 744,181.1 621.7,54.7 
			506,180.8 		"/>
	</g>
</g>
<g id="Warstwa_7" class="st0">
	<g id="XMLID_4_" class="st1">
		<g id="XMLID_494_">
			<path id="XMLID_411_" class="st8" d="M130.6,558.2h26.5v41.1h36.3v-41.1h26.5v108.6h-26.5v-41.2h-36.3v41.2h-26.5V558.2z"/>
			<path id="XMLID_407_" class="st8" d="M294.5,557.3c16.6,0,29,5.5,40.9,16.2c11.3,10.8,17,23.9,17,39c0,15.2-5.7,28.3-17,39
				c-11.8,10.6-24.2,16-40.9,16c-16.7,0-29.1-5.4-40.9-16c-11.2-10.7-16.9-23.8-16.9-38.9c0-15.1,5.7-28.2,16.9-39
				C265.5,562.7,277.9,557.3,294.5,557.3z M294.5,584c-9.1,0-14.6,2.7-20.9,8.3c-6.4,5.7-9.5,12.3-9.5,20.1c0,7.9,3.1,14.5,9.5,20
				c6.4,5.5,11.9,8.3,20.9,8.3c8.9,0,14.4-2.7,20.9-8.3c6.4-5.5,9.6-12.1,9.6-20c0-7.8-3.1-14.4-9.6-20
				C309,586.8,303.5,584,294.5,584z"/>
			<path id="XMLID_404_" class="st8" d="M439.9,622.5v-64.4h26.7v65.3c0,12.2-4.6,22.8-13.6,31.4c-9,8.6-20.9,12.9-35,12.9
				c-14.3,0-26.2-4.4-35.2-12.9c-9-8.6-13.6-19.2-13.6-31.4v-65.3h26.7v64.4c0,5,2.1,9.3,6.5,13c4.4,3.6,9.4,5.4,15.5,5.4
				C428.9,641,439.9,633.1,439.9,622.5z"/>
			<path id="XMLID_402_" class="st8" d="M515.4,632.4c0,4,4.8,7.9,10,8.6l0,0h1.4c5.6,0,11.5-4.1,11.5-8.3c0-7.2-11.8-8.3-21.4-11.2
				c-15.1-4.5-27.8-15.4-27.8-30.6c0-18.5,16-33.5,37.8-33.5c19.9,0,34.9,13.3,37.3,30.5l0.3,2.1l-27.9,5.6c0-6.7-2.7-11.5-9.6-11.5
				c-5.2,0-9.7,3.7-9.7,8.3c0,7.2,11.1,9.5,20.3,11.8c15.5,3.9,28.7,14.4,28.7,30c0,18.7-17.7,33.5-39.3,33.5
				c-19.9,0-36.4-13.1-39-30.4l-0.3-2.1l27.7-5.7V632.4z"/>
			<path id="XMLID_400_" class="st8" d="M588,557.9h74.9v26.5h-47.1v14.8H652v26.5h-36.2v14.8h47.1v26.4H588V557.9z"/>
			<path id="XMLID_398_" class="st8" d="M680.7,637.6c0-9.8,8.1-17.9,17.9-17.9c9.7,0,17.9,8.2,17.9,17.9c0,9.8-17.9,30.2-17.9,30.2
				S680.7,647.4,680.7,637.6z"/>
			<path id="XMLID_396_" class="st8" d="M741.7,667.4V558.8h26.5v108.6H741.7z"/>
			<path id="XMLID_371_" class="st8" d="M791.5,558.7l64.4,52.2v-52.2h27.4v108.9l0,0l-64.5-52.1v52.1h-27.3V558.7L791.5,558.7z"/>
		</g>
		<g id="XMLID_492_">
			<polygon id="XMLID_354_" class="st8" points="311,48.7 276,48.7 276,-67.1 362.8,-161.3 454,-67.4 454,28.7 418,28.7 418,-53.4 
				362.9,-111 311,-53.7 			"/>
			<path id="XMLID_350_" class="st8" d="M813.2,47.6l-12.4-6.3c-33.9-20-87.5-35-150.7-42.9c9,13,17.8,26.2,27.4,39
				c36.1,6.3,67.4,15.1,90.8,25.9c-16,37.6-39.9,77.5-67.1,116.4c-38.4-3.4-210.9,2.2-331.4,63.6c-31.7-40-58-77.3-78.7-111.4
				c81.1-2.7,150.3,9.6,204.3,25.4c1.8-12.9-3.8-27.5-7.7-40.9c-58.5-15.2-131.7-25.7-217-20.5c-4-7.6-7.6-15.1-10.9-22.3
				C340.4,45.8,431,29.7,520.7,27.1c12.3-8.6,22.1-20.1,27.9-34.9C471.6-8,362.4,1.2,247,41.5c-7.8-22.5-11.8-42.7-11.8-60.3
				c0-142.6,109.4-261.1,248.7-275.2c-2.4,9.5-3.7,19.3-3.7,29.2c0,57.3,45.5,119.1,119.1,119.1c59,0,108.5-42.3,117.7-100.5
				l1.7-10.6l-8.4-6.7c-55.4-44.4-125-68.9-196-68.9c-0.7,0-1.1,0-1.7,0l-3.2,0v0c0,0-1.3,0-1.8,0l-6.9,0.1l-0.1,0.1
				c-79.9,2.8-154.7,35.5-211.4,92.6c-58.7,59.2-91.1,137.6-91.1,220.8c0,71.9,51,171.6,151.7,296.3
				c73.7,91.3,148.4,163.5,149.1,164.2l12.8,12.3l12.8-12.3c9-8.7,222-214.9,283.9-379.5l-0.1,0L813.2,47.6z M523.2-295.4
				c56.5,1.7,109.7,20.2,155.1,53.7c-10.1,34.7-41.7,59-78.8,59c-50.7,0-82.1-42.6-82.1-82.1C517.3-275.3,519.3-285.7,523.2-295.4z
				 M511.9,402.4c-21.9-22-68.7-70.3-117.6-129.1c47.2-18.8,163.2-59.4,280.9-57.7C612,299.5,540.5,373.6,511.9,402.4z"/>
			<polygon id="XMLID_349_" class="st8" points="505,223.7 471,223.7 471,57.6 595.7,-78.5 727,57.3 727,195.7 693,195.7 693,71.3 
				596.4,-28.2 505,71 			"/>
		</g>
	</g>
</g>
<g id="Warstwa_6">
	<g id="XMLID_276_">
		<path id="XMLID_347_" class="st8" d="M810.7,173.8c0-8.4,7-15.3,15.3-15.3c8.3,0,15.3,7,15.3,15.3c0,8.4-15.3,25.8-15.3,25.8
			S810.7,182.2,810.7,173.8z"/>
		<path id="XMLID_345_" class="st8" d="M270.6,79.5v47.1v5h5h43.6h5v-5V79.5h16v120.2h-16v-47.1v-5h-5h-43.6h-5v5v47.1h-16V79.5
			H270.6z"/>
		<path id="XMLID_340_" class="st8" d="M450.6,82.9c7.1,3,13.7,7.5,19.8,13.6c6,6,10.5,12.6,13.5,19.7c3,7.3,4.5,15.1,4.5,23.4
			c0,8.4-1.5,16.2-4.5,23.4c-3,7.2-7.5,13.7-13.5,19.7c-5.9,5.9-12.5,10.4-19.8,13.4c-7.3,3-15.1,4.4-23.4,4.4
			c-8.4,0-16.2-1.5-23.4-4.4c-7.2-3-13.8-7.4-19.7-13.4c-6.1-6-10.6-12.6-13.4-19.8c-3-7-4.4-14.8-4.4-23.4c0-8.5,1.5-16.3,4.4-23.4
			c2.9-7.1,7.3-13.7,13.4-19.9c6-6,12.6-10.5,19.7-13.5c7-3,14.8-4.4,23.4-4.4C435.8,78.5,443.5,80,450.6,82.9z M410,98
			c-5.4,2.4-10.2,5.7-14.4,9.9c-4.4,4.4-7.7,9.2-9.9,14.5c-2.2,5.3-3.2,11-3.2,17.1c0,6.2,1.1,12,3.2,17.1c2.1,5.2,5.4,10,9.9,14.5
			c4.1,4.3,8.9,7.6,14.4,9.8c5.4,2.2,11.1,3.3,17.2,3.3c6,0,11.7-1.1,17-3.3c5.3-2.2,10.2-5.5,14.5-9.8c4.4-4.4,7.7-9.2,9.9-14.5
			c2.3-5.2,3.4-10.9,3.4-17.1c0-6.1-1.1-11.8-3.4-17.1c-2.2-5.2-5.5-10-9.8-14.5c-4.3-4.3-9.2-7.5-14.5-9.9c-5.3-2.2-11-3.3-17-3.3
			C421.2,94.7,415.4,95.8,410,98z"/>
		<path id="XMLID_321_" class="st8" d="M606.7,79.5V127v26.3c0,6.6-1.1,12.7-3.4,18.3c-2.4,5.6-5.9,10.7-10.5,15.4v0.1
			c-4.9,4.8-10,8.3-15.4,10.4c-5.5,2.3-11.6,3.5-18.2,3.5c-6.7,0-12.8-1.1-18.3-3.4c-5.8-2.4-10.9-5.9-15.4-10.6
			c-4.7-4.6-8.2-9.8-10.5-15.4c-2.3-5.5-3.4-11.6-3.4-18.3V127V79.5h16.2V127v23.5v2.7c0,4.2,0.8,8.2,2.3,12
			c1.5,3.6,3.7,6.9,6.9,10.1c3,3.1,6.4,5.4,10.2,6.9c3.7,1.6,7.6,2.3,12,2.3c4.1,0,8.1-0.8,11.9-2.3c3.8-1.6,7.1-3.9,10.1-6.9
			c3-2.8,5.3-6.2,7-10.1c1.6-3.8,2.3-7.8,2.3-12v-2.7V127V79.5H606.7z"/>
		<path id="XMLID_318_" class="st8" d="M672.4,182.8c2.4-1,4.5-2.2,6.5-3.8c1.9-1.5,3.5-3.5,4.6-5.7c1.2-2.3,1.8-4.7,1.8-7.3
			c0-2.2-0.4-4.2-1.3-6c-0.9-1.9-2.2-3.5-3.6-4.8c-1.5-1.3-3.3-2.5-5.5-3.7s-4.2-2.1-6.2-2.8c-2-0.7-4.1-1.4-6.5-2
			c-5.3-1.5-10-3.4-14.2-5.7c-4.1-2.3-7.8-5.4-10.9-9.1c-2.1-2.6-3.8-5.5-4.9-8.7c-1.2-3.2-1.7-6.6-1.7-10.1c0-4.7,0.9-9.2,2.7-13.4
			c1.8-4.2,4.3-7.9,7.5-11.1c3.2-3.2,6.9-5.7,11.2-7.5s8.7-2.7,13.4-2.7c4.3,0,8.4,0.7,12.3,2.2c3.9,1.5,7.4,3.6,10.5,6.3
			c5.2,4.5,8.8,10.1,10.6,16.8l-16,3.4c-0.9-2.5-2.3-4.8-4.3-6.8c-3.6-3.6-7.9-5.4-12.9-5.4c-2.5,0-4.8,0.5-7,1.4
			c-2.2,1-4.2,2.3-5.9,4c-1.7,1.7-3,3.7-4,5.9c-1,2.2-1.4,4.6-1.4,7c0,1.8,0.3,3.4,0.8,5c0.5,1.5,1.2,2.9,2,4
			c0.8,1.1,1.9,2.2,3.2,3.2c1.3,1,2.6,1.9,3.8,2.5c1.2,0.7,2.7,1.3,4.4,2s3.2,1.2,4.4,1.6c1.2,0.4,2.7,0.9,4.4,1.4
			c1.7,0.5,3,1,3.9,1.3c2.9,1,5.7,2.3,8.4,3.7c2.6,1.4,5.2,3.1,7.6,5.1c2.4,2,4.5,4.1,6.3,6.4c1.8,2.3,3.2,4.9,4.2,7.8
			c1,2.9,1.6,5.9,1.6,9.1c0,4.7-1,9.3-3.1,13.6c-2.1,4.3-4.8,8-8.1,11.1c-3.4,3.1-7.3,5.5-11.7,7.3c-4.5,1.8-9,2.7-13.7,2.7
			c-5.2,0-10.1-1.1-15-3.2c-4.8-2.1-9-5.1-12.6-9c-3.6-3.9-6.2-8.3-7.7-13.2l16.1-3.4c1.5,3.6,4.1,6.6,7.7,8.9
			c3.6,2.3,7.4,3.4,11.4,3.4C667.6,184.4,670,183.8,672.4,182.8z"/>
		<path id="XMLID_285_" class="st8" d="M790.4,79.2v16h-47.3h-5v5v26.3v5.1h5h34.2v16h-34.2h-5v5v26.3v5.1h5h47.3v16h-47.3H722V79.2
			H790.4z"/>
		<path id="XMLID_283_" class="st8" d="M869.4,79.5h16.1v120.2h-16.1V79.5z"/>
		<path id="XMLID_281_" class="st8" d="M991.9,160.7v-14.3V79.2h16.1v122.6l-78.5-83.6v9.2v72.6h-16.1V78.2L991.9,160.7z"/>
	</g>
	<polygon id="XMLID_275_" class="st8" points="44,135.7 31,135.7 31,96 61.2,63.5 93,95.9 93,128.7 80,128.7 80,100.7 61.5,80.8 
		44,100.6 	"/>
	<path id="XMLID_270_" class="st8" d="M216.8,135.5l-4.3-2.2c-11.7-6.9-30.1-12.1-51.9-14.8c3.1,4.5,6.1,9,9.4,13.4
		c12.4,2.2,23.2,5.2,31.3,8.9c-5.5,12.9-13.7,26.7-23.1,40.1c-13.2-1.2-72.6,0.8-114.1,21.9c-10.9-13.8-19.9-26.6-27.1-38.4
		c27.9-0.9,51.7,3.3,70.3,8.7c0.6-4.5-1.3-9.5-2.7-14.1c-20.1-5.2-45.3-8.8-74.7-7.1c-1.4-2.6-2.6-5.2-3.8-7.7
		c27.7-9.5,58.9-15.1,89.7-16c4.2-3,7.6-6.9,9.6-12c-26.5-0.1-64.1,3.1-103.8,17c-2.7-7.7-4-14.7-4-20.8c0-49.1,37.7-89.9,85.6-94.7
		c-0.8,3.3-1.3,6.7-1.3,10.1c0,19.7,15.7,41,41,41c20.3,0,37.4-14.6,40.5-34.6l0.6-3.6l-2.9-2.3c-19.1-15.3-43-23.7-67.4-23.7
		c-0.2,0-0.4,0-0.6,0l-1.1,0v0c0,0-0.4,0-0.6,0l-2.4,0l0,0C81.8,5.7,56,17,36.5,36.6C16.3,57,5.2,84,5.2,112.6
		c0,24.8,17.6,59.1,52.2,102c25.4,31.4,51.1,56.3,51.3,56.5l4.4,4.2l4.4-4.2c3.1-3,76.4-74,97.7-130.6l0,0L216.8,135.5z M117,17.4
		c19.4,0.6,37.8,6.9,53.4,18.5c-3.5,11.9-14.4,20.3-27.1,20.3c-17.5,0-28.3-14.7-28.3-28.3C115,24.3,115.7,20.8,117,17.4z
		 M113.1,257.6c-7.5-7.6-23.7-24.2-40.5-44.4c16.3-6.5,56.2-20.5,96.7-19.8C147.6,222.2,123,247.7,113.1,257.6z"/>
	<polygon id="XMLID_184_" class="st8" points="111,195.7 98,195.7 98,138.9 141.4,92 187,138.8 187,186.7 175,186.7 175,143.6 
		142.1,109.3 111,143.5 	"/>
</g>
<g id="Warstwa_5" class="st0">
	<g id="XMLID_3_" class="st1">
		<polygon id="XMLID_414_" class="st8" points="259,151.7 215,151.7 215,5.2 324.7,-114.5 440,4.9 440,126.7 396,126.7 396,22.6 
			325.5,-50.6 259,22.3 		"/>
		<path id="XMLID_363_" class="st8" d="M897.7,150.9l-15.7-8c-43.1-25.5-111.2-44.5-191.5-54.5c11.4,16.5,22.6,33.3,34.9,49.6
			c45.8,8,85.6,19.2,115.4,32.9c-20.3,47.7-50.7,98.5-85.2,148c-48.9-4.3-268.1,2.8-421.1,80.8c-40.3-50.8-73.7-98.2-100-141.6
			c103.1-3.4,191.1,12.2,259.7,32.3c2.3-16.4-4.9-35-9.8-52c-74.4-19.4-167.4-32.6-275.7-26.1c-5.1-9.7-9.7-19.2-13.9-28.4
			C296.9,148.6,412,128.2,526,124.9c15.7-11,28.1-25.6,35.5-44.4c-98-0.3-236.7,11.5-383.4,62.6c-9.9-28.6-14.9-54.2-14.9-76.6
			c0-181.2,139.1-331.8,316.1-349.8c-3.1,12.1-4.7,24.6-4.7,37.1c0,72.8,57.9,151.4,151.4,151.4c75,0,137.9-53.7,149.5-127.8
			l2.1-13.4l-10.6-8.5c-70.4-56.5-158.8-87.6-249-87.6c-0.8,0-1.4,0-2.2,0l-4.1,0v0c0,0-1.6,0-2.3,0l-8.7,0.1l-0.1,0.1
			C399.1-328.2,304-286.7,232-214.1C157.4-138.9,116.3-39.3,116.3,66.5c0,91.4,64.8,218.1,192.7,376.6
			c93.6,116,188.6,207.7,189.5,208.6l16.3,15.7l16.3-15.7c11.5-11.1,282.1-273.2,360.8-482.3l-0.1,0L897.7,150.9z M529.1-284.9
			c71.7,2.2,139.4,25.6,197.1,68.3c-12.8,44.1-53,74.9-100.2,74.9c-64.5,0-104.4-54.2-104.4-104.4
			C521.6-259.5,524.2-272.7,529.1-284.9z M514.8,601.8c-27.8-27.9-87.4-89.4-149.5-164c60-23.9,207.3-75.5,357-73.3
			C642,471,551.2,565.2,514.8,601.8z"/>
		<polygon id="XMLID_355_" class="st8" points="506,374.7 462,374.7 462,163.7 620.8,-9.3 788,163.4 788,339.7 744,339.7 744,181.1 
			621.7,54.7 506,180.8 		"/>
	</g>
</g>
<g id="Warstwa_4" class="st0">
	<g id="XMLID_2_" class="st1">
		<g id="XMLID_493_">
			<path id="XMLID_490_" class="st9" d="M132.2,558.3h26.4v40.9h36.2v-40.9h26.4v108.2h-26.4v-41h-36.2v41h-26.4V558.3z"/>
			<path id="XMLID_487_" class="st9" d="M295.4,557.4c16.6,0,28.9,5.4,40.8,16.2c11.2,10.7,16.9,23.8,16.9,38.9
				c0,15.1-5.7,28.1-16.9,38.8c-11.8,10.6-24.1,16-40.8,16c-16.7,0-29-5.4-40.8-16c-11.2-10.7-16.8-23.7-16.8-38.8
				c0-15,5.6-28.1,16.8-38.8C266.5,562.8,278.9,557.4,295.4,557.4z M295.4,584c-9.1,0-14.6,2.7-20.8,8.3c-6.4,5.7-9.5,12.2-9.5,20
				c0,7.8,3.1,14.4,9.5,20c6.3,5.5,11.8,8.2,20.9,8.2c8.9,0,14.4-2.7,20.8-8.2c6.4-5.5,9.5-12.1,9.5-20c0-7.8-3.1-14.3-9.6-20
				C309.8,586.8,304.4,584,295.4,584z"/>
			<path id="XMLID_485_" class="st9" d="M440.1,622.4v-64.1h26.6v65c0,12.1-4.5,22.7-13.5,31.3c-9,8.5-20.8,12.9-34.9,12.9
				c-14.2,0-26.1-4.3-35-12.9c-9-8.6-13.5-19.1-13.5-31.3v-65h26.6v64.1c0,5,2.1,9.3,6.4,13c4.3,3.6,9.4,5.4,15.4,5.4
				C429.2,640.7,440.1,633,440.1,622.4z"/>
			<path id="XMLID_483_" class="st9" d="M515.3,632.2c0,4,4.8,7.9,10,8.6l0,0h1.4c5.5,0,11.4-4.1,11.4-8.3c0-7.2-11.7-8.3-21.3-11.1
				c-15-4.4-27.6-15.3-27.6-30.5c0-18.5,15.9-33.4,37.6-33.4c19.8,0,34.8,13.2,37.2,30.3l0.3,2.1l-27.8,5.6c0-6.6-2.7-11.5-9.5-11.5
				c-5.2,0-9.7,3.7-9.7,8.3c0,7.1,11.1,9.4,20.2,11.8c15.4,3.9,28.5,14.4,28.5,29.9c0,18.6-17.6,33.4-39.1,33.4
				c-19.8,0-36.2-13-38.9-30.3l-0.3-2.1l27.6-5.6V632.2z"/>
			<path id="XMLID_481_" class="st9" d="M587.7,558h74.6v26.4h-46.9v14.8h36v26.4h-36v14.8h46.9v26.3h-74.6V558z"/>
			<path id="XMLID_479_" class="st9" d="M680,637.4c0-9.7,8.1-17.9,17.9-17.9c9.7,0,17.9,8.2,17.9,17.9c0,9.7-17.9,30.1-17.9,30.1
				S680,647.2,680,637.4z"/>
			<path id="XMLID_477_" class="st9" d="M740.7,667.1V558.9h26.4v108.2H740.7z"/>
			<path id="XMLID_475_" class="st9" d="M790.4,558.8l64.1,52v-52h27.3v108.4l0,0l-64.2-51.9v51.9h-27.2V558.8L790.4,558.8z"/>
		</g>
		<g id="XMLID_68_">
			<polyline id="XMLID_474_" class="st10" points="294,29.7 294,-61 363.1,-136.5 436,-61 436,10.7 			"/>
			<polygon id="XMLID_473_" class="st9" points="311,47.7 276,47.7 276,-67.7 362.3,-161.5 453,-68 453,27.7 419,27.7 419,-54.1 
				363.4,-111.4 311,-54.3 			"/>
			<g id="XMLID_471_">
				<path id="XMLID_472_" class="st11" d="M799,50.8c0,0-319.7-93.9-564.7,5.4l34.9,48.9l470.2,61L799,56.2V50.8z"/>
			</g>
			<g id="XMLID_469_">
				<path id="XMLID_470_" class="st12" d="M487.5,213.6l-122.7,55.6L261.4,104.8c0,0,178.6,7.4,226.1,22.1"/>
			</g>
			<path id="XMLID_463_" class="st9" d="M812.1,46.7l-12.3-6.3C751.7,12,664-6.2,565.3-8.3C488-10,371.7-2.5,248.2,40.6
				c-7.8-22.4-11.7-42.5-11.7-60.1c0-142,109-260,247.7-274.1c-2.4,9.5-3.7,19.3-3.7,29.1c0,57,45.3,118.6,118.6,118.6
				c58.8,0,108.1-42.1,117.2-100.1l1.6-10.5l-8.3-6.7c-55.2-44.2-124.5-68.6-195.2-68.6c-0.7,0-0.9,0-1.5,0l-3,0v0c0,0-1.5,0-2,0
				l-6.9,0.1l-0.2,0.1c-79.6,2.8-154.1,35.4-210.5,92.2c-58.5,58.9-90.7,137-90.7,219.9c0,71.6,50.8,170.9,151,295.1
				c73.4,90.9,147.8,162.8,148.5,163.5l12.8,12.3l12.8-12.3c9-8.7,221.1-214.1,282.7-377.9l-0.1,0L812.1,46.7z M523.2-294.9
				c56.2,1.7,109.2,20.1,154.4,53.5c-10,34.6-41.5,58.7-78.5,58.7c-50.5,0-81.8-42.5-81.8-81.8C517.4-274.9,519.4-285.3,523.2-294.9
				z M292.3,130.6c127.4-4.2,225.4,28.7,280.8,53.8c-93.5,14-172.1,44.3-202.5,57.1C339.1,201.7,312.9,164.6,292.3,130.6z M512,400
				c-21.8-21.9-68.5-70-117.1-128.5c47-18.8,162.5-59.2,279.7-57.4C611.7,297.5,540.5,371.3,512,400z M700.6,178.2
				c-20.5-1.4-41-1.4-61.1-0.5C610.8,159.6,476.1,82.4,272,94.7c-4-7.6-7.6-15-10.9-22.2C354.3,40.3,461.3,23.9,564.5,26
				c82,1.7,157.4,15.4,202.9,36.2C751.5,99.7,727.7,139.4,700.6,178.2z"/>
			<polyline id="XMLID_462_" class="st13" points="488,204.7 488,63.2 595.1,-54 708,63.2 708,177.7 			"/>
			<polygon id="XMLID_461_" class="st9" points="505,221.7 470,221.7 470,56.5 594.7,-79 726,56.2 726,194.7 691,194.7 691,70.1 
				595.4,-29 505,69.9 			"/>
		</g>
	</g>
</g>
<g id="Warstwa_3">
	<g id="XMLID_429_">
		<path id="XMLID_445_" class="st9" d="M1045.6-963.4c0-9.9,8.2-18.1,18.1-18.1c9.8,0,18.1,8.3,18.1,18.1c0,9.9-18.1,30.4-18.1,30.4
			S1045.6-953.5,1045.6-963.4z"/>
		<path id="XMLID_443_" class="st9" d="M408.7-1074.6v55.5v5.9h5.9h51.4h5.9v-5.9v-55.5h18.9V-933h-18.9v-55.5v-5.9h-5.9h-51.4h-5.9
			v5.9v55.5h-18.9v-141.7H408.7z"/>
		<path id="XMLID_440_" class="st9" d="M620.9-1070.6c8.3,3.5,16.1,8.8,23.3,16c7.1,7.1,12.4,14.9,15.9,23.2
			c3.6,8.6,5.3,17.8,5.3,27.6c0,9.9-1.8,19.1-5.3,27.6c-3.5,8.4-8.8,16.2-15.9,23.2c-7,7-14.8,12.3-23.3,15.8
			c-8.6,3.5-17.8,5.2-27.5,5.2c-9.9,0-19.1-1.7-27.6-5.2c-8.5-3.5-16.3-8.8-23.2-15.8c-7.2-7.1-12.4-14.9-15.8-23.3
			c-3.5-8.3-5.2-17.4-5.2-27.5c0-10,1.7-19.2,5.2-27.5c3.4-8.3,8.6-16.1,15.8-23.4c7.1-7.1,14.9-12.4,23.2-15.9
			c8.3-3.5,17.5-5.2,27.6-5.2C603.4-1075.8,612.6-1074,620.9-1070.6z M573.1-1052.7c-6.4,2.8-12.1,6.7-17,11.6
			c-5.2,5.2-9.1,10.9-11.6,17.1c-2.5,6.2-3.8,13-3.8,20.2c0,7.4,1.3,14.1,3.8,20.2c2.5,6.2,6.4,11.8,11.6,17.1
			c4.9,5.1,10.5,8.9,17,11.5c6.4,2.6,13.1,3.9,20.3,3.9c7.1,0,13.8-1.3,20.1-3.9c6.3-2.6,12-6.4,17.1-11.5
			c5.2-5.2,9.1-10.9,11.6-17.1c2.7-6.2,4-12.9,4-20.2c0-7.2-1.3-13.9-4-20.2c-2.6-6.1-6.4-11.8-11.5-17.1c-5.1-5-10.8-8.9-17.1-11.6
			c-6.3-2.6-13-3.9-20.1-3.9C586.2-1056.6,579.4-1055.3,573.1-1052.7z"/>
		<path id="XMLID_438_" class="st9" d="M805-1074.6v56v31.1c0,7.8-1.3,15-4,21.5c-2.8,6.6-6.9,12.6-12.4,18.1v0.1
			c-5.8,5.7-11.8,9.7-18.2,12.3c-6.5,2.7-13.7,4.1-21.4,4.1c-7.9,0-15.1-1.3-21.6-4c-6.8-2.8-12.9-7-18.2-12.5
			c-5.5-5.5-9.7-11.5-12.4-18.1c-2.7-6.5-4-13.7-4-21.5v-31.1v-56h19.2v56v27.7v3.2c0,5,0.9,9.7,2.8,14.1c1.7,4.2,4.4,8.2,8.1,11.9
			c3.6,3.6,7.6,6.3,12,8.1c4.3,1.8,9,2.8,14.1,2.8c4.8,0,9.5-0.9,14-2.8c4.4-1.8,8.4-4.5,11.9-8.1c3.5-3.3,6.3-7.3,8.3-11.9
			c1.8-4.4,2.8-9.1,2.8-14.1v-3.2v-27.7v-56H805z"/>
		<path id="XMLID_436_" class="st9" d="M882.5-952.8c2.8-1.1,5.4-2.6,7.6-4.4c2.3-1.8,4.1-4.1,5.5-6.7c1.4-2.7,2.1-5.5,2.1-8.6
			c0.1-2.5-0.5-4.9-1.6-7.1c-1.1-2.2-2.5-4.1-4.3-5.6c-1.7-1.6-3.9-3-6.4-4.4c-2.6-1.4-5-2.4-7.3-3.3c-2.3-0.8-4.9-1.6-7.7-2.4
			c-6.3-1.7-11.8-4-16.7-6.7c-4.9-2.7-9.2-6.3-12.9-10.8c-2.5-3-4.5-6.4-5.8-10.2c-1.4-3.8-2.1-7.8-2.1-11.9c0-5.6,1-10.8,3.1-15.8
			c2.1-5,5-9.3,8.8-13.1c3.8-3.8,8.2-6.7,13.2-8.8c5-2.1,10.3-3.2,15.9-3.2c5.1,0,9.9,0.9,14.5,2.6c4.6,1.7,8.7,4.2,12.4,7.4
			c6.2,5.3,10.4,11.9,12.5,19.8l-18.9,4c-1-2.9-2.7-5.6-5.1-8c-4.3-4.2-9.4-6.4-15.2-6.4c-2.9,0-5.7,0.6-8.3,1.7
			c-2.6,1.1-4.9,2.7-6.9,4.7c-2,2-3.6,4.3-4.7,7c-1.1,2.6-1.7,5.4-1.7,8.3c0,2.1,0.3,4,0.9,5.8c0.6,1.8,1.4,3.4,2.4,4.7
			c1,1.3,2.2,2.6,3.8,3.8c1.5,1.2,3,2.2,4.5,3c1.4,0.8,3.2,1.6,5.2,2.4s3.7,1.4,5.2,1.9c1.5,0.5,3.2,1,5.2,1.6
			c2,0.6,3.5,1.1,4.6,1.5c3.5,1.2,6.7,2.7,9.9,4.3c3.1,1.7,6.1,3.7,9,6s5.3,4.8,7.4,7.5c2.1,2.7,3.7,5.8,5,9.2s1.8,7,1.8,10.7
			c0,5.6-1.2,10.9-3.6,16c-2.4,5.1-5.6,9.5-9.6,13.1c-4,3.6-8.6,6.5-13.9,8.6c-5.3,2.1-10.6,3.2-16.2,3.2c-6.1,0-12-1.2-17.6-3.7
			c-5.7-2.5-10.6-6-14.9-10.6c-4.3-4.6-7.3-9.7-9.1-15.6l19-4c1.8,4.3,4.8,7.7,9.1,10.5c4.3,2.7,8.8,4.1,13.4,4.1
			C876.8-951,879.7-951.6,882.5-952.8z"/>
		<path id="XMLID_434_" class="st9" d="M1021.6-1074.9v18.9h-55.7h-5.9v5.9v31v6h5.9h40.3v18.9h-40.3h-5.9v5.9v31v6h5.9h55.7v18.9
			h-55.7H941v-142.3H1021.6z"/>
		<path id="XMLID_432_" class="st9" d="M1114.7-1074.6h19V-933h-19V-1074.6z"/>
		<path id="XMLID_430_" class="st9" d="M1259.2-978.8v-16.9v-79.3h19v144.5l-92.5-98.6v10.9v85.6h-19v-143.5L1259.2-978.8z"/>
	</g>
	<polyline id="XMLID_428_" class="st10" points="134,-1015.3 134,-1052.5 162.2,-1083.2 192,-1052.5 192,-1023.3 	"/>
	<polygon id="XMLID_427_" class="st9" points="141,-1008.3 127,-1008.3 127,-1055.2 162.1,-1093.4 199,-1055.3 199,-1016.3 
		185,-1016.3 185,-1049.6 162.4,-1073 141,-1049.7 	"/>
	<g id="XMLID_425_">
		<path id="XMLID_426_" class="st11" d="M340-1006.9c0,0-130.3-38.3-230.2,2.2l14.2,19.9l191.6,24.9l24.3-44.8V-1006.9z"/>
	</g>
	<g id="XMLID_423_">
		<path id="XMLID_424_" class="st12" d="M213-940.6l-50,22.7l-42.1-67c0,0,72.8,3,92.1,9"/>
	</g>
	<path id="XMLID_417_" class="st9" d="M345.3-1008.6l-5-2.6c-19.6-11.6-55.3-19-95.6-19.8c-31.5-0.7-78.9,2.4-129.2,19.9
		c-3.2-9.1-4.8-17.3-4.8-24.5c0-57.9,44.4-106,100.9-111.7c-1,3.9-1.5,7.8-1.5,11.9c0,23.2,18.5,48.3,48.3,48.3
		c24,0,44-17.2,47.7-40.8l0.7-4.3l-3.4-2.7c-22.5-18-50.7-28-79.5-28c-0.3,0-0.4,0-0.7,0l-1.3,0v0c0,0-0.5,0-0.7,0l-2.8,0l0,0
		c-32.4,1.1-62.8,14.4-85.8,37.6c-23.8,24-37,55.8-37,89.6c0,29.2,20.7,69.7,61.6,120.3c29.9,37,60.2,66.3,60.5,66.6l5.2,5l5.2-5
		c3.7-3.5,90.1-87.2,115.2-154l0,0L345.3-1008.6z M227.6-1147.8c22.9,0.7,44.5,8.2,62.9,21.8c-4.1,14.1-16.9,23.9-32,23.9
		c-20.6,0-33.3-17.3-33.3-33.3C225.2-1139.6,226-1143.9,227.6-1147.8z M133.4-974.4c51.9-1.7,91.9,11.7,114.4,21.9
		c-38.1,5.7-70.1,18-82.5,23.3C152.5-945.4,141.8-960.5,133.4-974.4z M223-864.6c-8.9-8.9-27.9-28.5-47.7-52.4
		c19.2-7.6,66.2-24.1,114-23.4C263.6-906.4,234.6-876.3,223-864.6z M299.9-955c-8.3-0.6-16.7-0.6-24.9-0.2
		c-11.7-7.4-66.6-38.9-149.8-33.9c-1.6-3.1-3.1-6.1-4.4-9.1c38-13.1,81.6-19.8,123.7-18.9c33.4,0.7,64.1,6.3,82.7,14.8
		C320.6-987,310.9-970.8,299.9-955z"/>
	<polyline id="XMLID_416_" class="st13" points="213,-944.3 213,-1001.9 256.8,-1049.6 303,-1001.9 303,-955.3 	"/>
	<polygon id="XMLID_415_" class="st9" points="220,-937.3 206,-937.3 206,-1004.6 256.7,-1059.8 310,-1004.7 310,-948.3 296,-948.3 
		296,-999 256.9,-1039.4 220,-999.1 	"/>
</g>
<g id="Warstwa_2" class="st0">
	<g id="XMLID_1_" class="st1">
		<polyline id="XMLID_460_" class="st10" points="237,129.7 237,13.8 325.1,-82.5 418,13.8 418,104.7 		"/>
		<polygon id="XMLID_459_" class="st9" points="259,151.7 215,151.7 215,5.2 324.7,-114.5 440,4.9 440,126.7 396,126.7 396,22.6 
			325.5,-50.6 259,22.3 		"/>
		<g id="XMLID_457_">
			<path id="XMLID_458_" class="st11" d="M882,156.5c0,0-408.5-119.8-721.1,6.9l44.3,62.4l600.4,77.8L882,163.4V156.5z"/>
		</g>
		<g id="XMLID_455_">
			<path id="XMLID_456_" class="st12" d="M483.5,364.2l-156.6,71L195,225.4c0,0,228,9.4,288.5,28.2"/>
		</g>
		<path id="XMLID_449_" class="st9" d="M897.7,151.2l-15.7-8C820.6,106.9,708.7,83.7,582.8,81c-98.6-2.1-247,7.4-404.6,62.4
			c-9.9-28.6-14.9-54.2-14.9-76.6c0-181.2,139.1-331.8,316.1-349.8c-3.1,12.1-4.7,24.6-4.7,37.1c0,72.8,57.9,151.4,151.4,151.4
			c75,0,137.9-53.7,149.5-127.8l2.1-13.4l-10.6-8.5c-70.4-56.5-158.8-87.6-249-87.6c-0.8,0-1.2,0-2,0l-3.9,0v0c0,0-1.8,0-2.4,0
			l-8.8,0.1l-0.2,0.1C399.1-328,304-286.4,232-213.8C157.4-138.7,116.3-39,116.3,66.8c0,91.4,64.8,218.1,192.7,376.6
			c93.6,116,188.6,207.7,189.5,208.6l16.3,15.7l16.3-15.7c11.5-11.1,282.1-273.2,360.8-482.3l-0.1,0L897.7,151.2z M529.1-284.7
			c71.7,2.2,139.4,25.6,197.1,68.3c-12.8,44.1-53,74.9-100.2,74.9c-64.5,0-104.4-54.2-104.4-104.4
			C521.6-259.2,524.2-272.4,529.1-284.7z M234.4,258.2c162.6-5.4,287.7,36.6,358.4,68.7c-119.3,17.8-219.6,56.5-258.4,72.9
			C294.1,349.1,260.7,301.7,234.4,258.2z M514.8,602c-27.8-27.9-87.4-89.4-149.5-164c60-23.9,207.3-75.5,357-73.3
			C642,471.3,551.2,565.5,514.8,602z M755.5,319.1c-26.1-1.7-52.3-1.8-78-0.6c-36.6-23.2-208.6-121.7-469-106.1
			c-5.1-9.7-9.7-19.2-13.9-28.4c119-41,255.5-62,387.2-59.2c104.7,2.2,200.8,19.6,258.9,46.3C820.4,218.8,790,269.6,755.5,319.1z"/>
		<polyline id="XMLID_448_" class="st13" points="484,352.7 484,172.2 621.3,22.7 766,172.2 766,317.7 		"/>
		<polygon id="XMLID_447_" class="st9" points="506,374.7 462,374.7 462,163.7 620.8,-9.3 788,163.4 788,339.7 744,339.7 744,181.1 
			621.7,54.7 506,180.8 		"/>
	</g>
</g>
</svg>
