<?xml version="1.0" encoding="utf-8"?>
<!-- Generator: Adobe Illustrator 19.0.0, SVG Export Plug-In . SVG Version: 6.00 Build 0)  -->
<svg version="1.1" id="Warstwa_1" xmlns="http://www.w3.org/2000/svg" xmlns:xlink="http://www.w3.org/1999/xlink" x="0px" y="0px"
	 viewBox="0 0 1000 1000" style="enable-background:new 0 0 1000 1000;" xml:space="preserve">
<style type="text/css">
	.st0{fill:#36C2AB;}
	.st1{fill:#007A66;}
	.st2{fill:#004A3E;}
	.st3{fill:#FBB03B;stroke:#000000;stroke-width:15;stroke-miterlimit:10;}
	.st4{fill:#FBB03B;}
	.st5{fill:#F17D24;}
	.st6{fill:#F14324;}
</style>
<g id="XMLID_18_">
	<g id="XMLID_83_">
		<path id="XMLID_17_" class="st0" d="M773,387.7c0,0-311-91.2-549,5.3l33.7,47.5l457.1,59.3L773,393V387.7z"/>
	</g>
	<g id="XMLID_82_">
		<path id="XMLID_16_" class="st1" d="M469.6,545.9l-119.2,54L250,440.2c0,0,173.6,7.2,219.7,21.5"/>
	</g>
	<g id="XMLID_81_">
		<path id="XMLID_15_" class="st2" d="M681,529.3c0,0-263.3,4.7-330.4,76.2l144.7,155.8L681,529.3z"/>
	</g>
	<g id="XMLID_80_">
		<path id="XMLID_14_" d="M217.5,421.3l-13.2-30.6l15.3-6.6c1.4-0.6,36-15.4,100.5-28.6c0.9-0.2,1.9-0.4,2.9-0.5
			c1.1-0.2,2.3-0.4,3.4-0.7c81.2-20.6,185-19.3,191.8-19.2c92-0.5,176.9,13.3,252.2,41.3l15.6,5.8l-11.6,31.3l-15.6-5.5
			C687.2,381.3,606.2,367,518.2,369H518l-0.2-0.3c-1,0-105.4-1.7-183.2,18c-2.1,0.5-4,0.8-5.7,1.1c-0.7,0.1-1.4,0.2-2.1,0.4
			c-60.7,12.5-93.7,26.4-94,26.6L217.5,421.3z"/>
	</g>
	<g id="XMLID_79_">
		<path id="XMLID_13_" d="M602.3,544c-1.4-0.9-137.9-93.5-350.9-77.2l-2.7-35.7c226.4-17.4,368.2,79.4,374.1,83.5L602.3,544z"/>
	</g>
	<g id="XMLID_78_">
		<path id="XMLID_11_" class="st3" d="M671.9,96.5"/>
	</g>
	<g id="XMLID_77_">
		<path id="XMLID_12_" d="M493.5,776.9L481.1,765c-0.7-0.7-73-70.5-144.3-158.9C239.4,485.5,190,389,190,319.4
			c0-80.5,31.3-156.4,88.1-213.6C334.8,48.6,410.3,16.7,490.6,16l0.3,35.8c-146.2,1.4-265.2,121.5-265.2,267.7
			c0,60.4,48,151.7,138.8,264.3c52.5,65,105.5,119.8,128.9,143.3c45.7-46,204.7-211.8,253.6-341.7l33.5,12.6
			C720.7,557,514.6,756.6,505.9,765L493.5,776.9z"/>
	</g>
	<g id="XMLID_71_">
		<path id="XMLID_7_" class="st4" d="M578.1,178.7c48.6,0,88.9-35.6,96.2-82.2c-48.9-39.2-111-62.7-178.4-62.7c-0.9,0-1.8,0-2.7,0
			c-7.9,14.1-12.4,30.3-12.4,47.5C480.8,128.8,518,178.7,578.1,178.7z"/>
		<path id="XMLID_8_" d="M578.1,196.6c-71.2,0-115.2-59.8-115.2-115.2c0-19.7,5.1-39.1,14.7-56.3l5.1-9L494,16c0.6,0,1.3,0,1.9,0
			c68.7,0,136,23.7,189.6,66.7l8.1,6.5L692,99.3C683.1,155.7,635.3,196.6,578.1,196.6z M504.3,51.8c-3.7,9.4-5.7,19.4-5.7,29.5
			c0,38.2,30.4,79.5,79.5,79.5c35.9,0,66.5-23.5,76.3-57C610.5,71.3,559,53.5,504.3,51.8z"/>
	</g>
	<g id="XMLID_69_">
		<polyline id="XMLID_4_" class="st5" points="282,367 282,279.1 349.2,205.7 420,279.1 420,348 		"/>
		<polygon id="XMLID_6_" points="298,384 265,384 265,272.6 348.3,181.4 436,272.3 436,365 403,365 403,285.8 349,230.1 298,285.6 
					"/>
	</g>
	<g id="XMLID_68_">
		<polyline id="XMLID_1_" class="st6" points="470,536 470,399.7 574.2,285.9 684,399.7 684,510 		"/>
		<polygon id="XMLID_3_" points="487,553 453,553 453,393.2 573.8,261.5 701,393 701,527 668,527 668,406.5 575,310.2 487,406.2 		
			"/>
	</g>
	<g id="XMLID_67_">
		<path id="XMLID_2_" d="M358.2,611.1l-15.1-32.4c7.1-3.3,176.7-81.2,344-66.4l-3.2,35.6C526.1,533.9,359.9,610.4,358.2,611.1z"/>
	</g>
</g>
<g id="XMLID_19_">
	<g id="XMLID_63_">
		<path d="M135.8,877.1h25.6v39.8h35.1v-39.8h25.6v105.1h-25.6v-39.8h-35.1v39.8h-25.6V877.1z"/>
	</g>
	<g id="XMLID_60_">
		<path d="M294.4,876.3c16.1,0,28.1,5.3,39.6,15.7c10.9,10.4,16.4,23.1,16.4,37.7c0,14.7-5.5,27.3-16.4,37.7
			c-11.5,10.3-23.5,15.5-39.6,15.5c-16.2,0-28.2-5.3-39.6-15.5c-10.9-10.4-16.3-23.1-16.3-37.7c0-14.6,5.5-27.3,16.3-37.7
			C266.3,881.6,278.3,876.3,294.4,876.3z M294.4,902.2c-8.8,0-14.2,2.6-20.3,8c-6.2,5.5-9.2,11.9-9.2,19.4c0,7.6,3,14,9.2,19.4
			c6.1,5.4,11.5,8,20.3,8c8.6,0,14-2.6,20.2-8c6.2-5.4,9.3-11.7,9.3-19.4c0-7.6-3-13.9-9.3-19.4
			C308.4,904.8,303.1,902.2,294.4,902.2z"/>
	</g>
	<g id="XMLID_52_">
		<path d="M435,939.4v-62.3h25.8v63.2c0,11.8-4.4,22-13.1,30.4c-8.7,8.3-20.2,12.5-33.9,12.5c-13.8,0-25.3-4.2-34-12.5
			c-8.7-8.3-13.1-18.6-13.1-30.4v-63.2h25.8v62.3c0,4.9,2,9,6.3,12.6c4.2,3.5,9.1,5.2,15,5.2C424.4,957.3,435,949.7,435,939.4z"/>
	</g>
	<g id="XMLID_50_">
		<path d="M508.1,949c0,3.9,4.6,7.7,9.7,8.3l0,0h1.4c5.4,0,11.1-4,11.1-8c0-7-11.4-8-20.7-10.8c-14.6-4.3-26.9-14.9-26.9-29.6
			c0-17.9,15.5-32.4,36.5-32.4c19.2,0,33.8,12.8,36.1,29.5l0.3,2l-27,5.4c0-6.5-2.6-11.1-9.3-11.1c-5.1,0-9.4,3.6-9.4,8
			c0,6.9,10.7,9.2,19.6,11.4c15,3.8,27.7,14,27.7,29.1c0,18.1-17.1,32.5-38,32.5c-19.2,0-35.2-12.6-37.8-29.5l-0.3-2.1l26.8-5.5V949
			z"/>
	</g>
	<g id="XMLID_48_">
		<path d="M578.4,876.9h72.5v25.6h-45.6v14.3h35v25.6h-35v14.3h45.6v25.6h-72.5V876.9z"/>
	</g>
	<g id="XMLID_46_">
		<path id="XMLID_20_" d="M671.1,954c0-9.5,7.9-17.4,17.4-17.4c9.4,0,17.4,7.9,17.4,17.4c0,9.5-17.4,29.2-17.4,29.2
			S671.1,963.5,671.1,954z"/>
	</g>
	<g id="XMLID_44_">
		<path d="M727.1,982.8V877.7h25.7v105.1H727.1z"/>
	</g>
	<g id="XMLID_5_">
		<path d="M775.3,877.6l62.3,50.5v-50.5h26.5V983l0,0l-62.4-50.4V983h-26.5V877.6L775.3,877.6z"/>
	</g>
</g>
</svg>
