<?xml version="1.0" encoding="utf-8"?>
<!-- Generator: Adobe Illustrator 19.0.0, SVG Export Plug-In . SVG Version: 6.00 Build 0)  -->
<svg version="1.1" id="Warstwa_1" xmlns="http://www.w3.org/2000/svg" xmlns:xlink="http://www.w3.org/1999/xlink" x="0px" y="0px"
	 viewBox="0 338.6 1000 322.8" style="enable-background:new 0 338.6 1000 322.8;" xml:space="preserve">
<style type="text/css">
	.st0{fill:#36C2AB;}
	.st1{fill:#007A66;}
	.st2{fill:#004A3E;}
	.st3{fill:#FBB03B;stroke:#000000;stroke-width:15;stroke-miterlimit:10;}
	.st4{fill:#FBB03B;}
	.st5{fill:#F17D24;}
	.st6{fill:#F14324;}
</style>
<g id="XMLID_246_">
	<g id="XMLID_272_">
		<path id="XMLID_273_" class="st0" d="M247,496.5c0,0-125.6-37-222.2,2.1l14,19.3L223.9,542l23.1-43.4V496.5z"/>
	</g>
	<g id="XMLID_270_">
		<path id="XMLID_271_" class="st1" d="M125.3,560.7l-48.4,21.9l-40.8-64.9c0,0,70.5,2.9,89.2,8.7"/>
	</g>
	<g id="XMLID_268_">
		<path id="XMLID_269_" class="st2" d="M211.1,553.9c0,0-106.9,1.9-134.1,30.9l58.8,63.2L211.1,553.9z"/>
	</g>
	<g id="XMLID_266_">
		<path id="XMLID_267_" d="M22.9,510.1l-5.4-12.4l6.2-2.7c0.6-0.3,14.6-6.3,40.8-11.6c0.4-0.1,0.8-0.2,1.2-0.2
			c0.5-0.1,0.9-0.2,1.4-0.3c33-8.4,75.1-7.8,77.9-7.8c37.4-0.2,71.8,5.4,102.4,16.8l6.4,2.4l-4.7,12.7l-6.4-1.7
			c-29-10.8-61.9-15.2-97.7-15.2h-0.2c-0.4,0-42.8-1.3-74.4,6.7c-0.8,0.2-1.6,0-2.3,0.1c-0.3,0.1-0.6-0.1-0.9,0
			c-24.6,5.1-38,10.7-38.2,10.7L22.9,510.1z"/>
	</g>
	<g id="XMLID_264_">
		<path id="XMLID_265_" d="M179.1,559.9c-0.6-0.4-56-38-142.5-31.3l-1.1-14.5c91.9-7,149.5,32.2,151.9,33.9L179.1,559.9z"/>
	</g>
	<g id="XMLID_262_">
		<path id="XMLID_263_" class="st3" d="M207.4,378.2"/>
	</g>
	<g id="XMLID_260_">
		<path id="XMLID_261_" d="M134.9,654.5l-5-4.8c-0.3-0.3-29.7-28.6-58.6-64.5c-39.5-49-59.6-88.2-59.6-116.4
			c0-32.7,12.7-63.5,35.8-86.7c23-23.2,53.7-36.2,86.3-36.5l0.1,14.5c-59.4,0.6-107.7,49.3-107.7,108.7c0,24.5,19.5,61.6,56.4,107.3
			c21.3,26.4,42.8,48.6,52.3,58.2c18.6-18.7,83.1-86,103-138.8l13.6,5.1c-24.3,64.6-108,145.7-111.5,149.1L134.9,654.5z"/>
	</g>
	<g id="XMLID_255_">
		<path id="XMLID_259_" class="st4" d="M169.3,411.6c19.7,0,36.1-14.5,39-33.4c-19.9-15.9-45.1-25.5-72.4-25.5c-0.4,0-0.7,0-1.1,0
			c-3.2,5.7-5,12.3-5,19.3C129.8,391.3,144.9,411.6,169.3,411.6z"/>
		<path id="XMLID_256_" d="M169.3,418.9c-28.9,0-46.8-24.3-46.8-46.8c0-8,2.1-15.9,6-22.8l2.1-3.7h4.6c0.3,0,0.5,0,0.8,0
			c27.9,0,55.2,9.6,77,27.1l3.3,2.6l-0.7,4.2C211.9,402.2,192.5,418.9,169.3,418.9z M139.4,360.1c-1.5,3.8-2.3,7.9-2.3,12
			c0,15.5,12.3,32.3,32.3,32.3c14.6,0,27-9.5,31-23.2C182.4,368,161.5,360.7,139.4,360.1z"/>
	</g>
	<g id="XMLID_252_">
		<polyline id="XMLID_254_" class="st5" points="51,490 51,452.3 76.8,422.6 104,452.3 104,481 		"/>
		<polygon id="XMLID_253_" points="55,497 42,497 42,449.7 76.1,412.7 112,449.6 112,487 99,487 99,455.1 76.4,432.4 55,455 		"/>
	</g>
	<g id="XMLID_249_">
		<polyline id="XMLID_251_" class="st6" points="126,559 126,504 167.8,457.8 212,504 212,546 		"/>
		<polygon id="XMLID_250_" points="134,562 117,562 117,498.7 167.2,445.2 220,498.6 220,551 207,551 207,504.1 169.5,465 134,504 
					"/>
	</g>
	<g id="XMLID_247_">
		<path id="XMLID_248_" d="M80,587.2L73.9,574c2.9-1.4,71.8-33,139.7-27l-1.3,14.5C148.2,555.8,80.7,586.9,80,587.2z"/>
	</g>
</g>
<g id="XMLID_1_">
	<path id="XMLID_286_" d="M811.2,530.8c0-7.6,6.4-14,14-14s14,6.4,14,14s-14,23.5-14,23.5S811.2,538.5,811.2,530.8z"/>
	<path id="XMLID_245_" d="M318.7,444.8v42.9v4.6h4.6H363h4.6v-4.6v-42.9h14.6v109.5h-14.6v-42.9v-4.6H363h-39.7h-4.6v4.6v42.9h-14.6
		V444.8H318.7z"/>
	<path id="XMLID_242_" d="M482.8,448c6.4,2.7,12.4,6.8,18,12.4c5.5,5.5,9.6,11.5,12.3,18c2.8,6.6,4.1,13.8,4.1,21.4
		c0,7.7-1.4,14.8-4.1,21.4c-2.7,6.5-6.8,12.5-12.3,18c-5.4,5.4-11.4,9.5-18,12.2s-13.7,4.1-21.3,4.1c-7.7,0-14.8-1.3-21.4-4.1
		c-6.6-2.7-12.6-6.8-18-12.2c-5.5-5.5-9.6-11.5-12.2-18c-2.7-6.4-4.1-13.5-4.1-21.3s1.4-14.9,4.1-21.3c2.6-6.4,6.7-12.5,12.2-18.1
		c5.5-5.5,11.5-9.6,18-12.3c6.4-2.7,13.5-4.1,21.4-4.1C469.3,443.9,476.4,445.3,482.8,448z M445.9,461.7c-5,2.2-9.3,5.2-13.1,9
		c-4,4-7,8.4-9,13.2c-2,4.8-2.9,10-2.9,15.6c0,5.7,1,10.9,2.9,15.6c1.9,4.8,4.9,9.2,9,13.2c3.8,3.9,8.2,6.9,13.1,8.9s10.1,3,15.7,3
		c5.5,0,10.7-1,15.5-3s9.3-5,13.2-8.9c4-4,7-8.4,9-13.2c2.1-4.8,3.1-10,3.1-15.6c0-5.5-1-10.8-3.1-15.6c-2-4.7-5-9.1-8.9-13.2
		c-3.9-3.9-8.3-6.9-13.3-9c-4.9-2-10-3-15.5-3C456,458.7,450.8,459.7,445.9,461.7z"/>
	<path id="XMLID_240_" d="M625.2,444.8v43.3v24c0,6-1,11.6-3.1,16.6c-2.2,5.1-5.4,9.8-9.6,14v0.1c-4.5,4.4-9.2,7.5-14.1,9.5
		c-5.1,2.1-10.6,3.2-16.6,3.2c-6.1,0-11.7-1-16.7-3.1c-5.3-2.2-9.9-5.4-14.1-9.6c-4.3-4.2-7.5-8.9-9.6-14s-3.1-10.6-3.1-16.6v-24
		v-43.3h14.8v43.3v21.4v2.5c0,3.8,0.7,7.5,2.1,10.9c1.3,3.2,3.4,6.3,6.3,9.2c2.8,2.8,5.8,4.9,9.3,6.3c3.3,1.4,7,2.1,10.9,2.1
		c3.7,0,7.3-0.7,10.8-2.1c3.4-1.4,6.5-3.5,9.2-6.3c2.7-2.6,4.8-5.6,6.4-9.2c1.4-3.4,2.1-7.1,2.1-10.9v-2.5v-21.4v-43.3h15V444.8z"/>
	<path id="XMLID_238_" d="M685.1,539c2.2-0.9,4.1-2,5.9-3.4c1.8-1.4,3.2-3.1,4.2-5.2c1.1-2.1,1.6-4.3,1.6-6.6c0-2-0.4-3.8-1.2-5.5
		c-0.9-1.7-2-3.2-3.3-4.4s-3-2.3-5-3.4c-2-1-3.9-1.9-5.7-2.5s-3.8-1.3-5.9-1.9c-4.8-1.3-9.2-3.1-12.9-5.2c-3.8-2.1-7.1-4.9-9.9-8.3
		c-1.9-2.3-3.4-5-4.5-7.9s-1.6-6-1.6-9.2c0-4.3,0.8-8.4,2.4-12.2c1.6-3.8,3.9-7.2,6.8-10.1c2.9-2.9,6.3-5.2,10.2-6.8
		c3.9-1.6,8-2.4,12.3-2.4c3.9,0,7.6,0.7,11.2,2c3.5,1.4,6.7,3.3,9.6,5.7c4.8,4.1,8,9.2,9.7,15.3l-14.6,3.1c-0.8-2.3-2.1-4.3-4-6.2
		c-3.3-3.3-7.2-4.9-11.7-4.9c-2.2,0-4.4,0.4-6.4,1.3s-3.8,2.1-5.4,3.6c-1.6,1.6-2.8,3.4-3.7,5.4s-1.3,4.2-1.3,6.4
		c0,1.6,0.2,3.1,0.7,4.5s1.1,2.6,1.9,3.6c0.7,1,1.7,2,2.9,2.9s2.4,1.7,3.5,2.3c1.1,0.6,2.5,1.2,4,1.8c1.6,0.6,2.9,1.1,4,1.5
		s2.5,0.8,4,1.3s2.7,0.9,3.5,1.2c2.7,0.9,5.2,2.1,7.6,3.4c2.4,1.3,4.7,2.8,6.9,4.6c2.2,1.8,4.1,3.7,5.7,5.8c1.6,2.1,2.9,4.5,3.8,7.1
		c1,2.7,1.4,5.4,1.4,8.3c0,4.3-0.9,8.5-2.8,12.4c-1.9,3.9-4.3,7.3-7.4,10.1c-3.1,2.8-6.6,5-10.7,6.7c-4.1,1.6-8.2,2.5-12.5,2.5
		c-4.7,0-9.3-1-13.6-2.9c-4.4-1.9-8.2-4.6-11.5-8.2c-3.3-3.5-5.6-7.5-7-12l14.7-3.1c1.4,3.3,3.7,6,7,8.1s6.8,3.1,10.4,3.1
		C680.7,540.4,682.9,539.9,685.1,539z"/>
	<path id="XMLID_236_" d="M792.6,444.6v14.6h-43.1H745v4.6v23.9v4.6h4.6h31.2v14.6h-31.2H745v4.6v23.9v4.6h4.6h43.1v14.6h-43.1
		h-19.2v-110H792.6z"/>
	<path id="XMLID_234_" d="M864.6,444.8h14.7v109.5h-14.7V444.8z"/>
	<path id="XMLID_232_" d="M976.3,518.9v-13v-61.3H991v111.7l-71.5-76.2v8.4v66.1h-14.7V443.7L976.3,518.9z"/>
</g>
</svg>
