<?xml version="1.0" encoding="utf-8"?>
<!-- Generator: Adobe Illustrator 19.0.0, SVG Export Plug-In . SVG Version: 6.00 Build 0)  -->
<svg version="1.1" xmlns="http://www.w3.org/2000/svg" xmlns:xlink="http://www.w3.org/1999/xlink" x="0px" y="0px"
	 viewBox="0 0 1000 1000" style="enable-background:new 0 0 1000 1000;" xml:space="preserve">
<style type="text/css">
	.st0{fill:#F17D24;}
	.st1{fill:#36C2AB;}
	.st2{fill:#007A66;}
	.st3{fill:#004A3E;}
	.st4{fill:#FBB03B;}
	.st5{fill:#F14324;}
	.st6{fill:#F28D52;}
	.st7{fill:#FFFFFF;}
	.st8{fill:#A1A1A1;}
	.st9{fill:#8C8C8C;}
	.st10{fill:#4F4F4F;}
	.st11{fill:#3B3B3B;}
	.st12{display:none;}
	.st13{display:inline;}
</style>
<g id="Warstwa_1">
	<g id="XMLID_80_">
		<path id="XMLID_182_" d="M-2344.4-679.1c0-9.9,8.2-18.1,18.1-18.1c9.8,0,18.1,8.3,18.1,18.1c0,9.9-18.1,30.4-18.1,30.4
			S-2344.4-669.2-2344.4-679.1z"/>
		<path id="XMLID_180_" d="M-2981.3-790.3v55.5v5.9h5.9h51.4h5.9v-5.9v-55.5h18.9v141.7h-18.9v-55.5v-5.9h-5.9h-51.4h-5.9v5.9v55.5
			h-18.9v-141.7H-2981.3z"/>
		<path id="XMLID_177_" d="M-2769.1-786.2c8.3,3.5,16.1,8.8,23.3,16c7.1,7.1,12.4,14.9,15.9,23.2c3.6,8.6,5.3,17.8,5.3,27.6
			c0,9.9-1.8,19.1-5.3,27.6c-3.5,8.4-8.8,16.2-15.9,23.2c-7,7-14.8,12.3-23.3,15.8c-8.6,3.5-17.8,5.2-27.5,5.2
			c-9.9,0-19.1-1.7-27.6-5.2c-8.5-3.5-16.3-8.8-23.2-15.8c-7.2-7.1-12.4-14.9-15.8-23.3c-3.5-8.3-5.2-17.4-5.2-27.5
			c0-10,1.7-19.2,5.2-27.5c3.4-8.3,8.6-16.1,15.8-23.4c7.1-7.1,14.9-12.4,23.2-15.9c8.3-3.5,17.5-5.2,27.6-5.2
			C-2786.6-791.5-2777.4-789.7-2769.1-786.2z M-2816.9-768.4c-6.4,2.8-12.1,6.7-17,11.6c-5.2,5.2-9.1,10.9-11.6,17.1
			c-2.5,6.2-3.8,13-3.8,20.2c0,7.4,1.3,14.1,3.8,20.2c2.5,6.2,6.4,11.8,11.6,17.1c4.9,5.1,10.5,8.9,17,11.5
			c6.4,2.6,13.1,3.9,20.3,3.9c7.1,0,13.8-1.3,20.1-3.9s12-6.4,17.1-11.5c5.2-5.2,9.1-10.9,11.6-17.1c2.7-6.2,4-12.9,4-20.2
			c0-7.2-1.3-13.9-4-20.2c-2.6-6.1-6.4-11.8-11.5-17.1c-5.1-5-10.8-8.9-17.1-11.6c-6.3-2.6-13-3.9-20.1-3.9
			C-2803.8-772.3-2810.6-771-2816.9-768.4z"/>
		<path id="XMLID_175_" d="M-2585-790.3v56v31.1c0,7.8-1.3,15-4,21.5c-2.8,6.6-6.9,12.6-12.4,18.1v0.1c-5.8,5.7-11.8,9.7-18.2,12.3
			c-6.5,2.7-13.7,4.1-21.4,4.1c-7.9,0-15.1-1.3-21.6-4c-6.8-2.8-12.9-7-18.2-12.5c-5.5-5.5-9.7-11.5-12.4-18.1
			c-2.7-6.5-4-13.7-4-21.5v-31.1v-56h19.2v56v27.7v3.2c0,5,0.9,9.7,2.8,14.1c1.7,4.2,4.4,8.2,8.1,11.9c3.6,3.6,7.6,6.3,12,8.1
			c4.3,1.8,9,2.8,14.1,2.8c4.8,0,9.5-0.9,14-2.8c4.4-1.8,8.4-4.5,11.9-8.1c3.5-3.3,6.3-7.3,8.3-11.9c1.8-4.4,2.8-9.1,2.8-14.1v-3.2
			v-27.7v-56H-2585z"/>
		<path id="XMLID_173_" d="M-2507.5-668.4c2.8-1.1,5.4-2.6,7.6-4.4c2.3-1.8,4.1-4.1,5.5-6.7c1.4-2.7,2.1-5.5,2.1-8.6
			c0.1-2.5-0.5-4.9-1.6-7.1c-1.1-2.2-2.5-4.1-4.3-5.6c-1.7-1.6-3.9-3-6.4-4.4s-5-2.4-7.3-3.3c-2.3-0.8-4.9-1.6-7.7-2.4
			c-6.3-1.7-11.8-4-16.7-6.7c-4.9-2.7-9.2-6.3-12.9-10.8c-2.5-3-4.5-6.4-5.8-10.2c-1.4-3.8-2.1-7.8-2.1-11.9c0-5.6,1-10.8,3.1-15.8
			c2.1-5,5-9.3,8.8-13.1c3.8-3.8,8.2-6.7,13.2-8.8c5-2.1,10.3-3.2,15.9-3.2c5.1,0,9.9,0.9,14.5,2.6c4.6,1.7,8.7,4.2,12.4,7.4
			c6.2,5.3,10.4,11.9,12.5,19.8l-18.9,4c-1-2.9-2.7-5.6-5.1-8c-4.3-4.2-9.4-6.4-15.2-6.4c-2.9,0-5.7,0.6-8.3,1.7
			c-2.6,1.1-4.9,2.7-6.9,4.7c-2,2-3.6,4.3-4.7,7c-1.1,2.6-1.7,5.4-1.7,8.3c0,2.1,0.3,4,0.9,5.8c0.6,1.8,1.4,3.4,2.4,4.7
			c1,1.3,2.2,2.6,3.8,3.8c1.5,1.2,3,2.2,4.5,3c1.4,0.8,3.2,1.6,5.2,2.4c2,0.8,3.7,1.4,5.2,1.9c1.5,0.5,3.2,1,5.2,1.6
			c2,0.6,3.5,1.1,4.6,1.5c3.5,1.2,6.7,2.7,9.9,4.3c3.1,1.7,6.1,3.7,9,6c2.9,2.3,5.3,4.8,7.4,7.5c2.1,2.7,3.7,5.8,5,9.2
			c1.2,3.4,1.8,7,1.8,10.7c0,5.6-1.2,10.9-3.6,16c-2.4,5.1-5.6,9.5-9.6,13.1c-4,3.6-8.6,6.5-13.9,8.6c-5.3,2.1-10.6,3.2-16.2,3.2
			c-6.1,0-12-1.2-17.6-3.7c-5.7-2.5-10.6-6-14.9-10.6c-4.3-4.6-7.3-9.7-9.1-15.6l19-4c1.8,4.3,4.8,7.7,9.1,10.5
			c4.3,2.7,8.8,4.1,13.4,4.1C-2513.2-666.6-2510.3-667.3-2507.5-668.4z"/>
		<path id="XMLID_171_" d="M-2368.4-790.6v18.9h-55.7h-5.9v5.9v31v6h5.9h40.3v18.9h-40.3h-5.9v5.9v31v6h5.9h55.7v18.9h-55.7h-24.9
			v-142.3H-2368.4z"/>
		<path id="XMLID_169_" d="M-2275.3-790.3h19v141.7h-19V-790.3z"/>
		<path id="XMLID_150_" d="M-2130.8-694.5v-16.9v-79.3h19v144.5l-92.5-98.6v10.9v85.6h-19v-143.5L-2130.8-694.5z"/>
	</g>
	<g id="XMLID_79_">
		<g id="XMLID_245_">
			<polyline id="XMLID_247_" class="st0" points="-3256,-731 -3256,-768.1 -3227.8,-798.9 -3198,-768.1 -3198,-739 			"/>
			<polygon id="XMLID_246_" points="-3249,-724 -3263,-724 -3263,-770.9 -3227.9,-809.1 -3191,-771 -3191,-732 -3205,-732 
				-3205,-765.3 -3227.6,-788.7 -3249,-765.4 			"/>
		</g>
		<g id="XMLID_243_">
			<path id="XMLID_244_" class="st1" d="M-3050-722.6c0,0-130.3-38.3-230.2,2.2l14.2,19.9l191.6,24.9l24.3-44.8V-722.6z"/>
		</g>
		<g id="XMLID_241_">
			<path id="XMLID_242_" class="st2" d="M-3177-656.2l-50,22.7l-42.1-67c0,0,72.8,3,92.1,9"/>
		</g>
		<g id="XMLID_239_">
			<path id="XMLID_240_" class="st3" d="M-3088.3-663.2c0,0-110.5,2-138.6,32l60.7,65.3L-3088.3-663.2z"/>
		</g>
		<path id="XMLID_238_" class="st4" d="M-3131.5-810.2c20.4,0,37.3-14.9,40.3-34.5c-20.5-16.5-46.6-26.3-74.8-26.3
			c-0.4,0-0.8,0-1.1,0c-3.3,5.9-5.2,12.7-5.2,19.9C-3172.3-831.2-3156.7-810.2-3131.5-810.2z"/>
		<path id="XMLID_232_" d="M-3044.7-724.3l-5-2.6c-19.6-11.6-55.3-19-95.6-19.8c-31.5-0.7-78.9,2.4-129.2,19.9
			c-3.2-9.1-4.8-17.3-4.8-24.5c0-57.9,44.4-106,100.9-111.7c-1,3.9-1.5,7.8-1.5,11.9c0,23.2,18.5,48.3,48.3,48.3
			c24,0,44-17.2,47.7-40.8l0.7-4.3l-3.4-2.7c-22.5-18-50.7-28-79.5-28c-0.3,0-0.4,0-0.7,0l-1.3,0v0c0,0-0.5,0-0.7,0l-2.8,0l0,0
			c-32.4,1.1-62.8,14.4-85.8,37.6c-23.8,24-37,55.8-37,89.6c0,29.2,20.7,69.7,61.6,120.3c29.9,37,60.2,66.3,60.5,66.6l5.2,5l5.2-5
			c3.7-3.5,90.1-87.2,115.2-154l0,0L-3044.7-724.3z M-3162.4-863.4c22.9,0.7,44.5,8.2,62.9,21.8c-4.1,14.1-16.9,23.9-32,23.9
			c-20.6,0-33.3-17.3-33.3-33.3C-3164.8-855.3-3164-859.5-3162.4-863.4z M-3256.6-690.1c51.9-1.7,91.9,11.7,114.4,21.9
			c-38.1,5.7-70.1,18-82.5,23.3C-3237.5-661.1-3248.2-676.2-3256.6-690.1z M-3167-580.3c-8.9-8.9-27.9-28.5-47.7-52.4
			c19.2-7.6,66.2-24.1,114-23.4C-3126.4-622-3155.4-592-3167-580.3z M-3090.1-670.6c-8.3-0.6-16.7-0.6-24.9-0.2
			c-11.7-7.4-66.6-38.9-149.8-33.9c-1.6-3.1-3.1-6.1-4.4-9.1c38-13.1,81.6-19.8,123.7-18.9c33.4,0.7,64.1,6.3,82.7,14.8
			C-3069.4-702.7-3079.1-686.5-3090.1-670.6z"/>
		<polyline id="XMLID_229_" class="st5" points="-3177,-660 -3177,-717.5 -3133.2,-765.3 -3087,-717.5 -3087,-671 		"/>
		<polygon id="XMLID_185_" points="-3170,-653 -3184,-653 -3184,-720.3 -3133.3,-775.5 -3080,-720.4 -3080,-664 -3094,-664 
			-3094,-714.7 -3133.1,-755.1 -3170,-714.8 		"/>
	</g>
</g>
<g id="Warstwa_9">
	<g id="XMLID_495_">
		<path id="XMLID_63_" d="M-3327.6-1046.1h10.7v16.7h14.7v-16.7h10.7v44.1h-10.7v-16.7h-14.7v16.7h-10.7V-1046.1z"/>
		<path id="XMLID_60_" d="M-3261.1-1046.4c6.8,0,11.8,2.2,16.6,6.6c4.6,4.4,6.9,9.7,6.9,15.8c0,6.2-2.3,11.5-6.9,15.8
			c-4.8,4.3-9.8,6.5-16.6,6.5c-6.8,0-11.8-2.2-16.6-6.5c-4.6-4.4-6.9-9.7-6.9-15.8c0-6.1,2.3-11.4,6.8-15.8
			C-3272.8-1044.2-3267.8-1046.4-3261.1-1046.4z M-3261.1-1035.6c-3.7,0-5.9,1.1-8.5,3.4c-2.6,2.3-3.9,5-3.9,8.1
			c0,3.2,1.3,5.9,3.9,8.1c2.6,2.3,4.8,3.4,8.5,3.4c3.6,0,5.9-1.1,8.5-3.4c2.6-2.3,3.9-4.9,3.9-8.1c0-3.2-1.3-5.8-3.9-8.1
			C-3255.2-1034.5-3257.4-1035.6-3261.1-1035.6z"/>
		<path id="XMLID_52_" d="M-3202.1-1019.9v-26.1h10.8v26.5c0,4.9-1.9,9.2-5.5,12.7c-3.7,3.5-8.5,5.2-14.2,5.2
			c-5.8,0-10.6-1.8-14.3-5.2c-3.7-3.5-5.5-7.8-5.5-12.7v-26.5h10.8v26.1c0,2,0.9,3.8,2.6,5.3c1.8,1.5,3.8,2.2,6.3,2.2
			C-3206.5-1012.5-3202.1-1015.6-3202.1-1019.9z"/>
		<path id="XMLID_50_" d="M-3171.4-1015.9c0,1.6,1.9,3.2,4.1,3.5l0,0h0.6c2.3,0,4.7-1.7,4.7-3.4c0-2.9-4.8-3.4-8.7-4.5
			c-6.1-1.8-11.3-6.2-11.3-12.4c0-7.5,6.5-13.6,15.3-13.6c8.1,0,14.2,5.4,15.2,12.4l0.1,0.9l-11.3,2.3c0-2.7-1.1-4.7-3.9-4.7
			c-2.1,0-3.9,1.5-3.9,3.4c0,2.9,4.5,3.8,8.2,4.8c6.3,1.6,11.6,5.9,11.6,12.2c0,7.6-7.2,13.6-15.9,13.6c-8.1,0-14.8-5.3-15.8-12.4
			l-0.1-0.9l11.3-2.3V-1015.9z"/>
		<path id="XMLID_48_" d="M-3142-1046.2h30.4v10.7h-19.1v6h14.7v10.7h-14.7v6h19.1v10.7h-30.4V-1046.2z"/>
		<path id="XMLID_46_" d="M-3104.3-1013.8c0-4,3.3-7.3,7.3-7.3c4,0,7.3,3.3,7.3,7.3c0,4-7.3,12.2-7.3,12.2
			S-3104.3-1009.8-3104.3-1013.8z"/>
		<path id="XMLID_44_" d="M-3079.6-1001.7v-44.1h10.8v44.1H-3079.6z"/>
		<path id="XMLID_5_" d="M-3059.4-1045.9l26.1,21.2v-21.2h11.1v44.2l0,0l-26.2-21.1v21.1h-11.1V-1045.9L-3059.4-1045.9z"/>
	</g>
	<g id="XMLID_67_">
		<g id="XMLID_69_">
			<polyline id="XMLID_378_" class="st0" points="-3262,-1260 -3262,-1296.9 -3233.8,-1327.7 -3204,-1296.9 -3204,-1268 			"/>
			<polygon id="XMLID_405_" points="-3255,-1253 -3269,-1253 -3269,-1299.6 -3233.9,-1337.9 -3197,-1299.7 -3197,-1261 -3211,-1261 
				-3211,-1294.1 -3233.6,-1317.5 -3255,-1294.2 			"/>
		</g>
		<g id="XMLID_83_">
			<path id="XMLID_263_" class="st1" d="M-3056-1251.3c0,0-130.2-38.3-230.1,2.2l14.2,19.9l191.6,24.9l24.3-44.8V-1251.3z"/>
		</g>
		<g id="XMLID_82_">
			<path id="XMLID_261_" class="st2" d="M-3182.8-1185l-50,22.7l-42.1-67c0,0,72.8,3,92.1,9"/>
		</g>
		<g id="XMLID_81_">
			<path id="XMLID_259_" class="st3" d="M-3094.2-1192c0,0-110.5,2-138.6,32l60.7,65.3L-3094.2-1192z"/>
		</g>
		<path id="XMLID_365_" class="st4" d="M-3137.3-1339c20.4,0,37.3-14.9,40.3-34.5c-20.5-16.5-46.6-26.3-74.8-26.3
			c-0.4,0-0.8,0-1.1,0c-3.3,5.9-5.2,12.7-5.2,19.9C-3178.2-1359.9-3162.6-1339-3137.3-1339z"/>
		<path id="XMLID_78_" d="M-3050.6-1253l-5-2.6c-19.6-11.6-55.3-19-95.6-19.8c-31.5-0.7-78.9,2.4-129.2,19.9
			c-3.2-9.1-4.8-17.3-4.8-24.5c0-57.9,44.4-106,100.9-111.7c-1,3.9-1.5,7.8-1.5,11.9c0,23.2,18.5,48.3,48.3,48.3
			c24,0,44-17.2,47.7-40.8l0.7-4.3l-3.4-2.7c-22.5-18-50.7-28-79.5-28c-0.3,0-0.5,0-0.8,0l-1.4,0v0c0,0-0.4,0-0.6,0l-2.7,0l0,0
			c-32.4,1.1-62.8,14.4-85.8,37.6c-23.8,24-36.9,55.8-36.9,89.6c0,29.2,20.7,69.7,61.6,120.3c29.9,37,60.2,66.3,60.5,66.6l5.2,5
			l5.2-5c3.7-3.5,90.1-87.2,115.2-154l0,0L-3050.6-1253z M-3168.3-1392.2c22.9,0.7,44.5,8.2,62.9,21.8c-4.1,14.1-16.9,23.9-32,23.9
			c-20.6,0-33.3-17.3-33.3-33.3C-3170.7-1384.1-3169.8-1388.3-3168.3-1392.2z M-3262.4-1218.8c51.9-1.7,91.9,11.7,114.4,21.9
			c-38.1,5.7-70.1,18-82.5,23.3C-3243.3-1189.8-3254-1205-3262.4-1218.8z M-3172.8-1109.1c-8.9-8.9-27.9-28.5-47.7-52.4
			c19.2-7.6,66.2-24.1,114-23.4C-3132.2-1150.8-3161.2-1120.7-3172.8-1109.1z M-3096-1199.4c-8.3-0.6-16.7-0.6-24.9-0.2
			c-11.7-7.4-66.6-38.9-149.8-33.9c-1.6-3.1-3.1-6.1-4.4-9.1c38-13.1,81.6-19.8,123.7-18.9c33.4,0.7,64.1,6.3,82.7,14.8
			C-3075.2-1231.4-3085-1215.2-3096-1199.4z"/>
		<polyline id="XMLID_149_" class="st5" points="-3183,-1189 -3183,-1246.3 -3139.2,-1294.1 -3093,-1246.3 -3093,-1200 		"/>
		<polygon id="XMLID_361_" points="-3176,-1182 -3190,-1182 -3190,-1249 -3139.3,-1304.3 -3086,-1249.1 -3086,-1193 -3100,-1193 
			-3100,-1243.5 -3139.1,-1283.8 -3176,-1243.6 		"/>
	</g>
</g>
<g id="Warstwa_8">
	<g id="XMLID_248_">
		<g id="XMLID_267_">
			<polyline id="XMLID_269_" class="st0" points="-3245,-293 -3245,-330.1 -3216.8,-360.9 -3187,-330.1 -3187,-301 			"/>
			<polygon id="XMLID_268_" points="-3238,-286 -3252,-286 -3252,-332.9 -3216.9,-371.1 -3180,-333 -3180,-294 -3194,-294 
				-3194,-327.3 -3216.6,-350.7 -3238,-327.4 			"/>
		</g>
		<g id="XMLID_265_">
			<path id="XMLID_266_" class="st1" d="M-3039-284.6c0,0-130.3-38.3-230.2,2.2l14.2,19.9l191.6,24.9l24.3-44.8V-284.6z"/>
		</g>
		<g id="XMLID_262_">
			<path id="XMLID_264_" class="st2" d="M-3166-218.2l-50,22.7l-42.1-67c0,0,72.8,3,92.1,9"/>
		</g>
		<g id="XMLID_258_">
			<path id="XMLID_260_" class="st3" d="M-3077.3-225.2c0,0-110.5,2-138.6,32l60.7,65.3L-3077.3-225.2z"/>
		</g>
		<path id="XMLID_257_" class="st4" d="M-3120.5-372.2c20.4,0,37.3-14.9,40.3-34.5c-20.5-16.5-46.6-26.3-74.8-26.3
			c-0.4,0-0.8,0-1.1,0c-3.3,5.9-5.2,12.7-5.2,19.9C-3161.3-393.2-3145.7-372.2-3120.5-372.2z"/>
		<path id="XMLID_251_" d="M-3033.7-286.3l-5-2.6c-19.6-11.6-55.3-19-95.6-19.8c-31.5-0.7-78.9,2.4-129.2,19.9
			c-3.2-9.1-4.8-17.3-4.8-24.5c0-57.9,44.4-106,100.9-111.7c-1,3.9-1.5,7.8-1.5,11.9c0,23.2,18.5,48.3,48.3,48.3
			c24,0,44-17.2,47.7-40.8l0.7-4.3l-3.4-2.7c-22.5-18-50.7-28-79.5-28c-0.3,0-0.4,0-0.7,0l-1.3,0v0c0,0-0.5,0-0.7,0l-2.8,0l0,0
			c-32.4,1.1-62.8,14.4-85.8,37.6c-23.8,24-37,55.8-37,89.6c0,29.2,20.7,69.7,61.6,120.3c29.9,37,60.2,66.3,60.5,66.6l5.2,5l5.2-5
			c3.7-3.5,90.1-87.2,115.2-154l0,0L-3033.7-286.3z M-3151.4-425.4c22.9,0.7,44.5,8.2,62.9,21.8c-4.1,14.1-16.9,23.9-32,23.9
			c-20.6,0-33.3-17.3-33.3-33.3C-3153.8-417.3-3153-421.5-3151.4-425.4z M-3245.6-252.1c51.9-1.7,91.9,11.7,114.4,21.9
			c-38.1,5.7-70.1,18-82.5,23.3C-3226.5-223.1-3237.2-238.2-3245.6-252.1z M-3156-142.3c-8.9-8.9-27.9-28.5-47.7-52.4
			c19.2-7.6,66.2-24.1,114-23.4C-3115.4-184-3144.4-154-3156-142.3z M-3079.1-232.6c-8.3-0.6-16.7-0.6-24.9-0.2
			c-11.7-7.4-66.6-38.9-149.8-33.9c-1.6-3.1-3.1-6.1-4.4-9.1c38-13.1,81.6-19.8,123.7-18.9c33.4,0.7,64.1,6.3,82.7,14.8
			C-3058.4-264.7-3068.1-248.5-3079.1-232.6z"/>
		<polyline id="XMLID_250_" class="st5" points="-3166,-222 -3166,-279.5 -3122.2,-327.3 -3076,-279.5 -3076,-233 		"/>
		<polygon id="XMLID_249_" points="-3159,-215 -3173,-215 -3173,-282.3 -3122.3,-337.5 -3069,-282.4 -3069,-226 -3083,-226 
			-3083,-276.7 -3122.1,-317.1 -3159,-276.8 		"/>
	</g>
</g>
<g id="Warstwa_7">
	<g id="XMLID_494_">
		<path id="XMLID_411_" class="st6" d="M-1191.8-1046.1h10.7v16.7h14.7v-16.7h10.7v44.1h-10.7v-16.7h-14.7v16.7h-10.7V-1046.1z"/>
		<path id="XMLID_407_" class="st6" d="M-1125.3-1046.4c6.8,0,11.8,2.2,16.6,6.6c4.6,4.4,6.9,9.7,6.9,15.8c0,6.2-2.3,11.5-6.9,15.8
			c-4.8,4.3-9.8,6.5-16.6,6.5c-6.8,0-11.8-2.2-16.6-6.5c-4.6-4.4-6.9-9.7-6.9-15.8c0-6.1,2.3-11.4,6.8-15.8
			C-1137.1-1044.2-1132.1-1046.4-1125.3-1046.4z M-1125.3-1035.6c-3.7,0-5.9,1.1-8.5,3.4c-2.6,2.3-3.9,5-3.9,8.1
			c0,3.2,1.3,5.9,3.9,8.1c2.6,2.3,4.8,3.4,8.5,3.4c3.6,0,5.9-1.1,8.5-3.4c2.6-2.3,3.9-4.9,3.9-8.1c0-3.2-1.3-5.8-3.9-8.1
			C-1119.4-1034.5-1121.7-1035.6-1125.3-1035.6z"/>
		<path id="XMLID_404_" class="st6" d="M-1066.3-1019.9v-26.1h10.8v26.5c0,4.9-1.9,9.2-5.5,12.7c-3.7,3.5-8.5,5.2-14.2,5.2
			c-5.8,0-10.6-1.8-14.3-5.2c-3.7-3.5-5.5-7.8-5.5-12.7v-26.5h10.8v26.1c0,2,0.9,3.8,2.6,5.3c1.8,1.5,3.8,2.2,6.3,2.2
			C-1070.8-1012.5-1066.3-1015.6-1066.3-1019.9z"/>
		<path id="XMLID_402_" class="st6" d="M-1035.7-1015.9c0,1.6,1.9,3.2,4.1,3.5l0,0h0.6c2.3,0,4.7-1.7,4.7-3.4c0-2.9-4.8-3.4-8.7-4.5
			c-6.1-1.8-11.3-6.2-11.3-12.4c0-7.5,6.5-13.6,15.3-13.6c8.1,0,14.2,5.4,15.2,12.4l0.1,0.9l-11.3,2.3c0-2.7-1.1-4.7-3.9-4.7
			c-2.1,0-3.9,1.5-3.9,3.4c0,2.9,4.5,3.8,8.2,4.8c6.3,1.6,11.6,5.9,11.6,12.2c0,7.6-7.2,13.6-15.9,13.6c-8.1,0-14.8-5.3-15.8-12.4
			l-0.1-0.9l11.3-2.3V-1015.9z"/>
		<path id="XMLID_400_" class="st6" d="M-1006.2-1046.2h30.4v10.7h-19.1v6h14.7v10.7h-14.7v6h19.1v10.7h-30.4V-1046.2z"/>
		<path id="XMLID_398_" class="st6" d="M-968.6-1013.8c0-4,3.3-7.3,7.3-7.3c4,0,7.3,3.3,7.3,7.3c0,4-7.3,12.2-7.3,12.2
			S-968.6-1009.8-968.6-1013.8z"/>
		<path id="XMLID_396_" class="st6" d="M-943.9-1001.7v-44.1h10.8v44.1H-943.9z"/>
		<path id="XMLID_371_" class="st6" d="M-923.6-1045.9l26.1,21.2v-21.2h11.1v44.2l0,0l-26.2-21.1v21.1h-11.1V-1045.9L-923.6-1045.9z
			"/>
	</g>
	<g id="XMLID_492_">
		<polygon id="XMLID_354_" class="st6" points="-1119,-1253 -1133,-1253 -1133,-1299.9 -1097.9,-1338.1 -1061,-1300 -1061,-1261 
			-1075,-1261 -1075,-1294.3 -1097.6,-1317.7 -1119,-1294.4 		"/>
		<path id="XMLID_350_" class="st6" d="M-914.8-1253.3l-5-2.6c-13.8-8.1-35.5-14.2-61.2-17.4c3.6,5.3,7.2,10.6,11.1,15.8
			c14.6,2.6,27.3,6.1,36.9,10.5c-6.5,15.2-16.2,31.4-27.2,47.3c-15.6-1.4-85.6,0.9-134.5,25.8c-12.9-16.2-23.5-31.4-31.9-45.2
			c32.9-1.1,61,3.9,82.9,10.3c0.7-5.3-1.6-11.2-3.1-16.6c-23.7-6.2-53.5-10.4-88.1-8.3c-1.6-3.1-3.1-6.1-4.4-9.1
			c32.6-11.3,69.4-17.8,105.8-18.8c5-3.5,9-8.2,11.3-14.2c-31.3-0.1-75.6,3.7-122.4,20c-3.2-9.1-4.8-17.3-4.8-24.5
			c0-57.9,44.4-106,100.9-111.7c-1,3.9-1.5,7.8-1.5,11.9c0,23.2,18.5,48.3,48.3,48.3c24,0,44-17.2,47.7-40.8l0.7-4.3l-3.4-2.7
			c-22.5-18-50.7-28-79.5-28c-0.3,0-0.4,0-0.7,0l-1.3,0v0c0,0-0.5,0-0.7,0l-2.8,0l0,0c-32.4,1.1-62.8,14.4-85.8,37.6
			c-23.8,24-37,55.8-37,89.6c0,29.2,20.7,69.7,61.6,120.3c29.9,37,60.2,66.3,60.5,66.6l5.2,5l5.2-5c3.7-3.5,90.1-87.2,115.2-154l0,0
			L-914.8-1253.3z M-1032.5-1392.4c22.9,0.7,44.5,8.2,62.9,21.8c-4.1,14.1-16.9,23.9-32,23.9c-20.6,0-33.3-17.3-33.3-33.3
			C-1034.9-1384.3-1034.1-1388.5-1032.5-1392.4z M-1037.1-1109.3c-8.9-8.9-27.9-28.5-47.7-52.4c19.2-7.6,66.2-24.1,114-23.4
			C-996.5-1151-1025.5-1121-1037.1-1109.3z"/>
		<polygon id="XMLID_349_" class="st6" points="-1040,-1182 -1054,-1182 -1054,-1249.3 -1003.3,-1304.5 -950,-1249.4 -950,-1193 
			-964,-1193 -964,-1243.7 -1003.1,-1284.1 -1040,-1243.8 		"/>
	</g>
</g>
<g id="Warstwa_6">
	<g id="XMLID_276_">
		<path id="XMLID_347_" class="st6" d="M-621.4-650.1c0-9.9,8.2-18.1,18.1-18.1c9.8,0,18.1,8.3,18.1,18.1c0,9.9-18.1,30.4-18.1,30.4
			S-621.4-640.2-621.4-650.1z"/>
		<path id="XMLID_345_" class="st6" d="M-1258.3-761.3v55.5v5.9h5.9h51.4h5.9v-5.9v-55.5h18.9v141.7h-18.9v-55.5v-5.9h-5.9h-51.4
			h-5.9v5.9v55.5h-18.9v-141.7H-1258.3z"/>
		<path id="XMLID_340_" class="st6" d="M-1046.1-757.2c8.3,3.5,16.1,8.8,23.3,16c7.1,7.1,12.4,14.9,15.9,23.2
			c3.6,8.6,5.3,17.8,5.3,27.6c0,9.9-1.8,19.1-5.3,27.6c-3.5,8.4-8.8,16.2-15.9,23.2c-7,7-14.8,12.3-23.3,15.8
			c-8.6,3.5-17.8,5.2-27.5,5.2c-9.9,0-19.1-1.7-27.6-5.2c-8.5-3.5-16.3-8.8-23.2-15.8c-7.2-7.1-12.4-14.9-15.8-23.3
			c-3.5-8.3-5.2-17.4-5.2-27.5c0-10,1.7-19.2,5.2-27.5c3.4-8.3,8.6-16.1,15.8-23.4c7.1-7.1,14.9-12.4,23.2-15.9
			c8.3-3.5,17.5-5.2,27.6-5.2C-1063.6-762.5-1054.4-760.7-1046.1-757.2z M-1093.9-739.4c-6.4,2.8-12.1,6.7-17,11.6
			c-5.2,5.2-9.1,10.9-11.6,17.1c-2.5,6.2-3.8,13-3.8,20.2c0,7.4,1.3,14.1,3.8,20.2c2.5,6.2,6.4,11.8,11.6,17.1
			c4.9,5.1,10.5,8.9,17,11.5c6.4,2.6,13.1,3.9,20.3,3.9c7.1,0,13.8-1.3,20.1-3.9s12-6.4,17.1-11.5c5.2-5.2,9.1-10.9,11.6-17.1
			c2.7-6.2,4-12.9,4-20.2c0-7.2-1.3-13.9-4-20.2c-2.6-6.1-6.4-11.8-11.5-17.1c-5.1-5-10.8-8.9-17.1-11.6c-6.3-2.6-13-3.9-20.1-3.9
			C-1080.8-743.3-1087.6-742-1093.9-739.4z"/>
		<path id="XMLID_321_" class="st6" d="M-862-761.3v56v31.1c0,7.8-1.3,15-4,21.5c-2.8,6.6-6.9,12.6-12.4,18.1v0.1
			c-5.8,5.7-11.8,9.7-18.2,12.3c-6.5,2.7-13.7,4.1-21.4,4.1c-7.9,0-15.1-1.3-21.6-4c-6.8-2.8-12.9-7-18.2-12.5
			c-5.5-5.5-9.7-11.5-12.4-18.1c-2.7-6.5-4-13.7-4-21.5v-31.1v-56h19.2v56v27.7v3.2c0,5,0.9,9.7,2.8,14.1c1.7,4.2,4.4,8.2,8.1,11.9
			c3.6,3.6,7.6,6.3,12,8.1c4.3,1.8,9,2.8,14.1,2.8c4.8,0,9.5-0.9,14-2.8c4.4-1.8,8.4-4.5,11.9-8.1c3.5-3.3,6.3-7.3,8.3-11.9
			c1.8-4.4,2.8-9.1,2.8-14.1v-3.2v-27.7v-56H-862z"/>
		<path id="XMLID_318_" class="st6" d="M-784.5-639.4c2.8-1.1,5.4-2.6,7.6-4.4c2.3-1.8,4.1-4.1,5.5-6.7c1.4-2.7,2.1-5.5,2.1-8.6
			c0.1-2.5-0.5-4.9-1.6-7.1c-1.1-2.2-2.5-4.1-4.3-5.6c-1.7-1.6-3.9-3-6.4-4.4s-5-2.4-7.3-3.3c-2.3-0.8-4.9-1.6-7.7-2.4
			c-6.3-1.7-11.8-4-16.7-6.7c-4.9-2.7-9.2-6.3-12.9-10.8c-2.5-3-4.5-6.4-5.8-10.2c-1.4-3.8-2.1-7.8-2.1-11.9c0-5.6,1-10.8,3.1-15.8
			c2.1-5,5-9.3,8.8-13.1c3.8-3.8,8.2-6.7,13.2-8.8c5-2.1,10.3-3.2,15.9-3.2c5.1,0,9.9,0.9,14.5,2.6c4.6,1.7,8.7,4.2,12.4,7.4
			c6.2,5.3,10.4,11.9,12.5,19.8l-18.9,4c-1-2.9-2.7-5.6-5.1-8c-4.3-4.2-9.4-6.4-15.2-6.4c-2.9,0-5.7,0.6-8.3,1.7
			c-2.6,1.1-4.9,2.7-6.9,4.7c-2,2-3.6,4.3-4.7,7c-1.1,2.6-1.7,5.4-1.7,8.3c0,2.1,0.3,4,0.9,5.8c0.6,1.8,1.4,3.4,2.4,4.7
			c1,1.3,2.2,2.6,3.8,3.8c1.5,1.2,3,2.2,4.5,3c1.4,0.8,3.2,1.6,5.2,2.4c2,0.8,3.7,1.4,5.2,1.9c1.5,0.5,3.2,1,5.2,1.6
			c2,0.6,3.5,1.1,4.6,1.5c3.5,1.2,6.7,2.7,9.9,4.3c3.1,1.7,6.1,3.7,9,6c2.9,2.3,5.3,4.8,7.4,7.5c2.1,2.7,3.7,5.8,5,9.2
			c1.2,3.4,1.8,7,1.8,10.7c0,5.6-1.2,10.9-3.6,16c-2.4,5.1-5.6,9.5-9.6,13.1c-4,3.6-8.6,6.5-13.9,8.6c-5.3,2.1-10.6,3.2-16.2,3.2
			c-6.1,0-12-1.2-17.6-3.7c-5.7-2.5-10.6-6-14.9-10.6c-4.3-4.6-7.3-9.7-9.1-15.6l19-4c1.8,4.3,4.8,7.7,9.1,10.5
			c4.3,2.7,8.8,4.1,13.4,4.1C-790.2-637.6-787.3-638.3-784.5-639.4z"/>
		<path id="XMLID_285_" class="st6" d="M-645.4-761.6v18.9h-55.7h-5.9v5.9v31v6h5.9h40.3v18.9h-40.3h-5.9v5.9v31v6h5.9h55.7v18.9
			h-55.7H-726v-142.3H-645.4z"/>
		<path id="XMLID_283_" class="st6" d="M-552.3-761.3h19v141.7h-19V-761.3z"/>
		<path id="XMLID_281_" class="st6" d="M-407.8-665.5v-16.9v-79.3h19v144.5l-92.5-98.6v10.9v85.6h-19v-143.5L-407.8-665.5z"/>
	</g>
	<polygon id="XMLID_275_" class="st6" points="-1526,-695 -1540,-695 -1540,-741.9 -1504.9,-780.1 -1468,-742 -1468,-703 
		-1482,-703 -1482,-736.3 -1504.6,-759.7 -1526,-736.4 	"/>
	<path id="XMLID_270_" class="st6" d="M-1321.7-695.3l-5-2.6c-13.8-8.1-35.5-14.2-61.2-17.4c3.6,5.3,7.2,10.6,11.1,15.8
		c14.6,2.6,27.3,6.1,36.9,10.5c-6.5,15.2-16.2,31.4-27.2,47.3c-15.6-1.4-85.6,0.9-134.5,25.8c-12.9-16.2-23.5-31.4-31.9-45.2
		c32.9-1.1,61,3.9,82.9,10.3c0.7-5.3-1.6-11.2-3.1-16.6c-23.7-6.2-53.5-10.4-88.1-8.3c-1.6-3.1-3.1-6.1-4.4-9.1
		c32.6-11.3,69.4-17.8,105.8-18.8c5-3.5,9-8.2,11.3-14.2c-31.3-0.1-75.6,3.7-122.4,20c-3.2-9.1-4.8-17.3-4.8-24.5
		c0-57.9,44.4-106,100.9-111.7c-1,3.9-1.5,7.8-1.5,11.9c0,23.2,18.5,48.3,48.3,48.3c24,0,44-17.2,47.7-40.8l0.7-4.3l-3.4-2.7
		c-22.5-18-50.7-28-79.5-28c-0.3,0-0.4,0-0.7,0l-1.3,0v0c0,0-0.5,0-0.7,0l-2.8,0l0,0c-32.4,1.1-62.8,14.4-85.8,37.6
		c-23.8,24-37,55.8-37,89.6c0,29.2,20.7,69.7,61.6,120.3c29.9,37,60.2,66.3,60.5,66.6l5.2,5l5.2-5c3.7-3.5,90.1-87.2,115.2-154l0,0
		L-1321.7-695.3z M-1439.4-834.4c22.9,0.7,44.5,8.2,62.9,21.8c-4.1,14.1-16.9,23.9-32,23.9c-20.6,0-33.3-17.3-33.3-33.3
		C-1441.8-826.3-1441-830.5-1439.4-834.4z M-1444-551.3c-8.9-8.9-27.9-28.5-47.7-52.4c19.2-7.6,66.2-24.1,114-23.4
		C-1403.4-593-1432.4-563-1444-551.3z"/>
	<polygon id="XMLID_184_" class="st6" points="-1447,-624 -1461,-624 -1461,-691.3 -1410.3,-746.5 -1357,-691.4 -1357,-635 
		-1371,-635 -1371,-685.7 -1410.1,-726.1 -1447,-685.8 	"/>
</g>
<g id="Warstwa_5">
	<polygon id="XMLID_414_" class="st6" points="-1121,-268 -1135,-268 -1135,-314.9 -1099.9,-353.1 -1063,-315 -1063,-276 
		-1077,-276 -1077,-309.3 -1099.6,-332.7 -1121,-309.4 	"/>
	<path id="XMLID_363_" class="st6" d="M-916.7-268.3l-5-2.6c-13.8-8.1-35.5-14.2-61.2-17.4c3.6,5.3,7.2,10.6,11.1,15.8
		c14.6,2.6,27.3,6.1,36.9,10.5c-6.5,15.2-16.2,31.4-27.2,47.3c-15.6-1.4-85.6,0.9-134.5,25.8c-12.9-16.2-23.5-31.4-31.9-45.2
		c32.9-1.1,61,3.9,82.9,10.3c0.7-5.3-1.6-11.2-3.1-16.6c-23.7-6.2-53.5-10.4-88.1-8.3c-1.6-3.1-3.1-6.1-4.4-9.1
		c32.6-11.3,69.4-17.8,105.8-18.8c5-3.5,9-8.2,11.3-14.2c-31.3-0.1-75.6,3.7-122.4,20c-3.2-9.1-4.8-17.3-4.8-24.5
		c0-57.9,44.4-106,100.9-111.7c-1,3.9-1.5,7.8-1.5,11.9c0,23.2,18.5,48.3,48.3,48.3c24,0,44-17.2,47.7-40.8l0.7-4.3l-3.4-2.7
		c-22.5-18-50.7-28-79.5-28c-0.3,0-0.4,0-0.7,0l-1.3,0v0c0,0-0.5,0-0.7,0l-2.8,0l0,0c-32.4,1.1-62.8,14.4-85.8,37.6
		c-23.8,24-37,55.8-37,89.6c0,29.2,20.7,69.7,61.6,120.3c29.9,37,60.2,66.3,60.5,66.6l5.2,5l5.2-5c3.7-3.5,90.1-87.2,115.2-154l0,0
		L-916.7-268.3z M-1034.4-407.4c22.9,0.7,44.5,8.2,62.9,21.8c-4.1,14.1-16.9,23.9-32,23.9c-20.6,0-33.3-17.3-33.3-33.3
		C-1036.8-399.3-1036-403.5-1034.4-407.4z M-1039-124.3c-8.9-8.9-27.9-28.5-47.7-52.4c19.2-7.6,66.2-24.1,114-23.4
		C-998.4-166-1027.4-136-1039-124.3z"/>
	<polygon id="XMLID_355_" class="st6" points="-1042,-197 -1056,-197 -1056,-264.3 -1005.3,-319.5 -952,-264.4 -952,-208 -966,-208 
		-966,-258.7 -1005.1,-299.1 -1042,-258.8 	"/>
</g>
<g id="Warstwa_4">
	<g id="XMLID_2_">
		<g id="XMLID_493_">
			<path id="XMLID_490_" class="st7" d="M125.2,890.6h26.4v40.9h36.2v-40.9h26.4v108.2h-26.4v-41h-36.2v41h-26.4V890.6z"/>
			<path id="XMLID_487_" class="st7" d="M288.4,889.7c16.6,0,28.9,5.4,40.8,16.2c11.2,10.7,16.9,23.8,16.9,38.9
				c0,15.1-5.7,28.1-16.9,38.8c-11.8,10.6-24.1,16-40.8,16c-16.7,0-29-5.4-40.8-16c-11.2-10.7-16.8-23.7-16.8-38.8
				c0-15,5.6-28.1,16.8-38.8C259.5,895.2,271.9,889.7,288.4,889.7z M288.4,916.4c-9.1,0-14.6,2.7-20.8,8.3c-6.4,5.7-9.5,12.2-9.5,20
				c0,7.8,3.1,14.4,9.5,20c6.3,5.5,11.8,8.2,20.9,8.2c8.9,0,14.4-2.7,20.8-8.2c6.4-5.5,9.5-12.1,9.5-20c0-7.8-3.1-14.3-9.6-20
				C302.8,919.1,297.4,916.4,288.4,916.4z"/>
			<path id="XMLID_485_" class="st7" d="M433.1,954.7v-64.1h26.6v65c0,12.1-4.5,22.7-13.5,31.3c-9,8.5-20.8,12.9-34.9,12.9
				c-14.2,0-26.1-4.3-35-12.9c-9-8.6-13.5-19.1-13.5-31.3v-65h26.6v64.1c0,5,2.1,9.3,6.4,13c4.3,3.6,9.4,5.4,15.4,5.4
				C422.2,973.1,433.1,965.3,433.1,954.7z"/>
			<path id="XMLID_483_" class="st7" d="M508.3,964.5c0,4,4.8,7.9,10,8.6l0,0h1.4c5.5,0,11.4-4.1,11.4-8.3c0-7.2-11.7-8.3-21.3-11.1
				c-15-4.4-27.6-15.3-27.6-30.5c0-18.5,15.9-33.4,37.6-33.4c19.8,0,34.8,13.2,37.2,30.3l0.3,2.1l-27.8,5.6c0-6.6-2.7-11.5-9.5-11.5
				c-5.2,0-9.7,3.7-9.7,8.3c0,7.1,11.1,9.4,20.2,11.8c15.4,3.9,28.5,14.4,28.5,29.9c0,18.6-17.6,33.4-39.1,33.4
				c-19.8,0-36.2-13-38.9-30.3l-0.3-2.1l27.6-5.6V964.5z"/>
			<path id="XMLID_481_" class="st7" d="M580.7,890.3h74.6v26.4h-46.9v14.8h36v26.4h-36v14.8h46.9v26.3h-74.6V890.3z"/>
			<path id="XMLID_479_" class="st7" d="M673,969.7c0-9.7,8.1-17.9,17.9-17.9c9.7,0,17.9,8.2,17.9,17.9c0,9.7-17.9,30.1-17.9,30.1
				S673,979.5,673,969.7z"/>
			<path id="XMLID_477_" class="st7" d="M733.7,999.4V891.3h26.4v108.2H733.7z"/>
			<path id="XMLID_475_" class="st7" d="M783.4,891.1l64.1,52v-52h27.3v108.4l0,0l-64.2-51.9v51.9h-27.2V891.1L783.4,891.1z"/>
		</g>
		<g id="XMLID_68_">
			<polyline id="XMLID_474_" class="st8" points="287,362 287,271.3 356.1,195.9 429,271.3 429,343 			"/>
			<polygon id="XMLID_473_" class="st7" points="304,380 269,380 269,264.6 355.3,170.8 446,264.4 446,360 412,360 412,278.3 
				356.4,220.9 304,278 			"/>
			<g id="XMLID_471_">
				<path id="XMLID_472_" class="st9" d="M792,383.2c0,0-319.7-93.9-564.7,5.4l34.9,48.9l470.2,61L792,388.6V383.2z"/>
			</g>
			<g id="XMLID_469_">
				<path id="XMLID_470_" class="st10" d="M480.5,545.9l-122.7,55.6L254.4,437.2c0,0,178.6,7.4,226.1,22.1"/>
			</g>
			<path id="XMLID_463_" class="st7" d="M805.1,379l-12.3-6.3C744.7,344.3,657,326.1,558.3,324c-77.3-1.6-193.6,5.8-317.1,48.9
				c-7.8-22.4-11.7-42.5-11.7-60.1c0-142,109-260,247.7-274.1c-2.4,9.5-3.7,19.3-3.7,29.1c0,57,45.3,118.6,118.6,118.6
				c58.8,0,108.1-42.1,117.2-100.1l1.6-10.5l-8.3-6.7C647.5,24.9,578.2,0.5,507.5,0.5c-0.7,0-0.9,0-1.5,0l-3,0v0c0,0-1.5,0-2,0
				l-6.9,0.1l-0.2,0.1C414.4,3.5,339.8,36.1,283.4,93c-58.5,58.9-90.7,137-90.7,219.9c0,71.6,50.8,170.9,151,295.1
				c73.4,90.9,147.8,162.8,148.5,163.5l12.8,12.3l12.8-12.3c9-8.7,221.1-214.1,282.7-377.9l-0.1,0L805.1,379z M516.2,37.4
				c56.2,1.7,109.2,20.1,154.4,53.5c-10,34.6-41.5,58.7-78.5,58.7c-50.5,0-81.8-42.5-81.8-81.8C510.4,57.4,512.4,47.1,516.2,37.4z
				 M285.3,462.9c127.4-4.2,225.4,28.7,280.8,53.8c-93.5,14-172.1,44.3-202.5,57.1C332.1,534.1,305.9,496.9,285.3,462.9z M505,732.3
				c-21.8-21.9-68.5-70-117.1-128.5c47-18.8,162.5-59.2,279.7-57.4C604.7,629.8,533.5,703.7,505,732.3z M693.6,510.6
				c-20.5-1.4-41-1.4-61.1-0.5C603.8,491.9,469.1,414.7,265,427c-4-7.6-7.6-15-10.9-22.2c93.2-32.2,200.2-48.6,303.4-46.4
				c82,1.7,157.4,15.4,202.9,36.2C744.5,432,720.7,471.8,693.6,510.6z"/>
			<polyline id="XMLID_462_" class="st11" points="481,537 481,395.5 588.1,278.3 701,395.5 701,510 			"/>
			<polygon id="XMLID_461_" class="st7" points="498,554 463,554 463,388.8 587.7,253.3 719,388.6 719,527 684,527 684,402.5 
				588.4,303.4 498,402.2 			"/>
		</g>
	</g>
</g>
<g id="Warstwa_3">
	<g id="XMLID_429_">
		<path id="XMLID_445_" class="st7" d="M1038.6-631.1c0-9.9,8.2-18.1,18.1-18.1c9.8,0,18.1,8.3,18.1,18.1c0,9.9-18.1,30.4-18.1,30.4
			S1038.6-621.2,1038.6-631.1z"/>
		<path id="XMLID_443_" class="st7" d="M401.7-742.3v55.5v5.9h5.9h51.4h5.9v-5.9v-55.5h18.9v141.7h-18.9v-55.5v-5.9h-5.9h-51.4h-5.9
			v5.9v55.5h-18.9v-141.7H401.7z"/>
		<path id="XMLID_440_" class="st7" d="M613.9-738.2c8.3,3.5,16.1,8.8,23.3,16c7.1,7.1,12.4,14.9,15.9,23.2
			c3.6,8.6,5.3,17.8,5.3,27.6c0,9.9-1.8,19.1-5.3,27.6c-3.5,8.4-8.8,16.2-15.9,23.2c-7,7-14.8,12.3-23.3,15.8
			c-8.6,3.5-17.8,5.2-27.5,5.2c-9.9,0-19.1-1.7-27.6-5.2c-8.5-3.5-16.3-8.8-23.2-15.8c-7.2-7.1-12.4-14.9-15.8-23.3
			c-3.5-8.3-5.2-17.4-5.2-27.5c0-10,1.7-19.2,5.2-27.5c3.4-8.3,8.6-16.1,15.8-23.4c7.1-7.1,14.9-12.4,23.2-15.9
			c8.3-3.5,17.5-5.2,27.6-5.2C596.4-743.5,605.6-741.7,613.9-738.2z M566.1-720.4c-6.4,2.8-12.1,6.7-17,11.6
			c-5.2,5.2-9.1,10.9-11.6,17.1c-2.5,6.2-3.8,13-3.8,20.2c0,7.4,1.3,14.1,3.8,20.2c2.5,6.2,6.4,11.8,11.6,17.1
			c4.9,5.1,10.5,8.9,17,11.5c6.4,2.6,13.1,3.9,20.3,3.9c7.1,0,13.8-1.3,20.1-3.9c6.3-2.6,12-6.4,17.1-11.5
			c5.2-5.2,9.1-10.9,11.6-17.1c2.7-6.2,4-12.9,4-20.2c0-7.2-1.3-13.9-4-20.2c-2.6-6.1-6.4-11.8-11.5-17.1c-5.1-5-10.8-8.9-17.1-11.6
			c-6.3-2.6-13-3.9-20.1-3.9C579.2-724.3,572.4-723,566.1-720.4z"/>
		<path id="XMLID_438_" class="st7" d="M798-742.3v56v31.1c0,7.8-1.3,15-4,21.5c-2.8,6.6-6.9,12.6-12.4,18.1v0.1
			c-5.8,5.7-11.8,9.7-18.2,12.3c-6.5,2.7-13.7,4.1-21.4,4.1c-7.9,0-15.1-1.3-21.6-4c-6.8-2.8-12.9-7-18.2-12.5
			c-5.5-5.5-9.7-11.5-12.4-18.1c-2.7-6.5-4-13.7-4-21.5v-31.1v-56h19.2v56v27.7v3.2c0,5,0.9,9.7,2.8,14.1c1.7,4.2,4.4,8.2,8.1,11.9
			c3.6,3.6,7.6,6.3,12,8.1c4.3,1.8,9,2.8,14.1,2.8c4.8,0,9.5-0.9,14-2.8c4.4-1.8,8.4-4.5,11.9-8.1c3.5-3.3,6.3-7.3,8.3-11.9
			c1.8-4.4,2.8-9.1,2.8-14.1v-3.2v-27.7v-56H798z"/>
		<path id="XMLID_436_" class="st7" d="M875.5-620.4c2.8-1.1,5.4-2.6,7.6-4.4c2.3-1.8,4.1-4.1,5.5-6.7c1.4-2.7,2.1-5.5,2.1-8.6
			c0.1-2.5-0.5-4.9-1.6-7.1c-1.1-2.2-2.5-4.1-4.3-5.6c-1.7-1.6-3.9-3-6.4-4.4s-5-2.4-7.3-3.3c-2.3-0.8-4.9-1.6-7.7-2.4
			c-6.3-1.7-11.8-4-16.7-6.7c-4.9-2.7-9.2-6.3-12.9-10.8c-2.5-3-4.5-6.4-5.8-10.2c-1.4-3.8-2.1-7.8-2.1-11.9c0-5.6,1-10.8,3.1-15.8
			c2.1-5,5-9.3,8.8-13.1c3.8-3.8,8.2-6.7,13.2-8.8c5-2.1,10.3-3.2,15.9-3.2c5.1,0,9.9,0.9,14.5,2.6c4.6,1.7,8.7,4.2,12.4,7.4
			c6.2,5.3,10.4,11.9,12.5,19.8l-18.9,4c-1-2.9-2.7-5.6-5.1-8c-4.3-4.2-9.4-6.4-15.2-6.4c-2.9,0-5.7,0.6-8.3,1.7
			c-2.6,1.1-4.9,2.7-6.9,4.7c-2,2-3.6,4.3-4.7,7c-1.1,2.6-1.7,5.4-1.7,8.3c0,2.1,0.3,4,0.9,5.8c0.6,1.8,1.4,3.4,2.4,4.7
			c1,1.3,2.2,2.6,3.8,3.8c1.5,1.2,3,2.2,4.5,3c1.4,0.8,3.2,1.6,5.2,2.4c2,0.8,3.7,1.4,5.2,1.9c1.5,0.5,3.2,1,5.2,1.6
			c2,0.6,3.5,1.1,4.6,1.5c3.5,1.2,6.7,2.7,9.9,4.3c3.1,1.7,6.1,3.7,9,6c2.9,2.3,5.3,4.8,7.4,7.5c2.1,2.7,3.7,5.8,5,9.2
			c1.2,3.4,1.8,7,1.8,10.7c0,5.6-1.2,10.9-3.6,16c-2.4,5.1-5.6,9.5-9.6,13.1c-4,3.6-8.6,6.5-13.9,8.6c-5.3,2.1-10.6,3.2-16.2,3.2
			c-6.1,0-12-1.2-17.6-3.7c-5.7-2.5-10.6-6-14.9-10.6c-4.3-4.6-7.3-9.7-9.1-15.6l19-4c1.8,4.3,4.8,7.7,9.1,10.5
			c4.3,2.7,8.8,4.1,13.4,4.1C869.8-618.6,872.7-619.3,875.5-620.4z"/>
		<path id="XMLID_434_" class="st7" d="M1014.6-742.6v18.9h-55.7h-5.9v5.9v31v6h5.9h40.3v18.9h-40.3h-5.9v5.9v31v6h5.9h55.7v18.9
			h-55.7H934v-142.3H1014.6z"/>
		<path id="XMLID_432_" class="st7" d="M1107.7-742.3h19v141.7h-19V-742.3z"/>
		<path id="XMLID_430_" class="st7" d="M1252.2-646.5v-16.9v-79.3h19v144.5l-92.5-98.6v10.9v85.6h-19v-143.5L1252.2-646.5z"/>
	</g>
	<polyline id="XMLID_428_" class="st8" points="127,-683 127,-720.1 155.2,-750.9 185,-720.1 185,-691 	"/>
	<polygon id="XMLID_427_" class="st7" points="134,-676 120,-676 120,-722.9 155.1,-761.1 192,-723 192,-684 178,-684 178,-717.3 
		155.4,-740.7 134,-717.4 	"/>
	<g id="XMLID_425_">
		<path id="XMLID_426_" class="st9" d="M333-674.6c0,0-130.3-38.3-230.2,2.2l14.2,19.9l191.6,24.9l24.3-44.8V-674.6z"/>
	</g>
	<g id="XMLID_423_">
		<path id="XMLID_424_" class="st10" d="M206-608.2l-50,22.7l-42.1-67c0,0,72.8,3,92.1,9"/>
	</g>
	<path id="XMLID_417_" class="st7" d="M338.3-676.3l-5-2.6c-19.6-11.6-55.3-19-95.6-19.8c-31.5-0.7-78.9,2.4-129.2,19.9
		c-3.2-9.1-4.8-17.3-4.8-24.5c0-57.9,44.4-106,100.9-111.7c-1,3.9-1.5,7.8-1.5,11.9c0,23.2,18.5,48.3,48.3,48.3
		c24,0,44-17.2,47.7-40.8l0.7-4.3l-3.4-2.7c-22.5-18-50.7-28-79.5-28c-0.3,0-0.4,0-0.7,0l-1.3,0v0c0,0-0.5,0-0.7,0l-2.8,0l0,0
		c-32.4,1.1-62.8,14.4-85.8,37.6c-23.8,24-37,55.8-37,89.6c0,29.2,20.7,69.7,61.6,120.3c29.9,37,60.2,66.3,60.5,66.6l5.2,5l5.2-5
		c3.7-3.5,90.1-87.2,115.2-154l0,0L338.3-676.3z M220.6-815.4c22.9,0.7,44.5,8.2,62.9,21.8c-4.1,14.1-16.9,23.9-32,23.9
		c-20.6,0-33.3-17.3-33.3-33.3C218.2-807.3,219-811.5,220.6-815.4z M126.4-642.1c51.9-1.7,91.9,11.7,114.4,21.9
		c-38.1,5.7-70.1,18-82.5,23.3C145.5-613.1,134.8-628.2,126.4-642.1z M216-532.3c-8.9-8.9-27.9-28.5-47.7-52.4
		c19.2-7.6,66.2-24.1,114-23.4C256.6-574,227.6-544,216-532.3z M292.9-622.6c-8.3-0.6-16.7-0.6-24.9-0.2
		c-11.7-7.4-66.6-38.9-149.8-33.9c-1.6-3.1-3.1-6.1-4.4-9.1c38-13.1,81.6-19.8,123.7-18.9c33.4,0.7,64.1,6.3,82.7,14.8
		C313.6-654.7,303.9-638.5,292.9-622.6z"/>
	<polyline id="XMLID_416_" class="st11" points="206,-612 206,-669.5 249.8,-717.3 296,-669.5 296,-623 	"/>
	<polygon id="XMLID_415_" class="st7" points="213,-605 199,-605 199,-672.3 249.7,-727.5 303,-672.4 303,-616 289,-616 289,-666.7 
		249.9,-707.1 213,-666.8 	"/>
</g>
<g id="Warstwa_2" class="st12">
	<g id="XMLID_1_" class="st13">
		<polyline id="XMLID_460_" class="st8" points="230,462 230,346.1 318.1,249.8 411,346.1 411,437 		"/>
		<polygon id="XMLID_459_" class="st7" points="252,484 208,484 208,337.6 317.7,217.8 433,337.2 433,459 389,459 389,355 
			318.5,281.7 252,354.6 		"/>
		<g id="XMLID_457_">
			<path id="XMLID_458_" class="st9" d="M875,488.8c0,0-408.5-119.8-721.1,6.9l44.3,62.4L798.5,636L875,495.7V488.8z"/>
		</g>
		<g id="XMLID_455_">
			<path id="XMLID_456_" class="st10" d="M476.5,696.5l-156.6,71L188,557.7c0,0,228,9.4,288.5,28.2"/>
		</g>
		<path id="XMLID_449_" class="st7" d="M890.7,483.5l-15.7-8c-61.4-36.3-173.2-59.5-299.2-62.1c-98.6-2.1-247,7.4-404.6,62.4
			c-9.9-28.6-14.9-54.2-14.9-76.6c0-181.2,139.1-331.8,316.1-349.8c-3.1,12.1-4.7,24.6-4.7,37.1c0,72.8,57.9,151.4,151.4,151.4
			c75,0,137.9-53.7,149.5-127.8l2.1-13.4L760,88.1C689.6,31.6,601.2,0.5,511,0.5c-0.8,0-1.2,0-2,0l-3.9,0v0c0,0-1.8,0-2.4,0
			l-8.8,0.1l-0.2,0.1C392.1,4.4,297,45.9,225,118.5c-74.6,75.2-115.7,174.8-115.7,280.6c0,91.4,64.8,218.1,192.7,376.6
			c93.6,116,188.6,207.7,189.5,208.6l16.3,15.7l16.3-15.7c11.5-11.1,282.1-273.2,360.8-482.3l-0.1,0L890.7,483.5z M522.1,47.6
			c71.7,2.2,139.4,25.6,197.1,68.3c-12.8,44.1-53,74.9-100.2,74.9c-64.5,0-104.4-54.2-104.4-104.4C514.6,73.1,517.2,59.9,522.1,47.6
			z M227.4,590.6c162.6-5.4,287.7,36.6,358.4,68.7c-119.3,17.8-219.6,56.5-258.4,72.9C287.1,681.4,253.7,634,227.4,590.6z
			 M507.8,934.3c-27.8-27.9-87.4-89.4-149.5-164c60-23.9,207.3-75.5,357-73.3C635,803.6,544.2,897.8,507.8,934.3z M748.5,651.4
			c-26.1-1.7-52.3-1.8-78-0.6c-36.6-23.2-208.6-121.7-469-106.1c-5.1-9.7-9.7-19.2-13.9-28.4c119-41,255.5-62,387.2-59.2
			c104.7,2.2,200.8,19.6,258.9,46.3C813.4,551.2,783,601.9,748.5,651.4z"/>
		<polyline id="XMLID_448_" class="st11" points="477,685 477,504.6 614.3,355 759,504.6 759,650 		"/>
		<polygon id="XMLID_447_" class="st7" points="499,707 455,707 455,496 613.8,323.1 781,495.7 781,672 737,672 737,513.4 
			614.7,387 499,513.1 		"/>
	</g>
</g>
</svg>
